<svg width="154" height="50" xmlns="http://www.w3.org/2000/svg"><g fill="none" fill-rule="evenodd"><rect fill="#000" width="154" height="49.5288188" rx="6"/><g fill="#FFF"><path d="M33.7132555 23.6306183c-.0335537-3.5428332 3.0533884-5.26643313 3.1945454-5.34667726-1.7482644-2.42161391-4.4580165-2.75248354-5.4102479-2.77886517-2.2758678-.22754157-4.4834711 1.29379917-5.6428099 1.29379917-1.1824793 0-2.96776861-1.27181448-4.89190084-1.2344405-2.47603306.03627475-4.79239669 1.39822646-6.06280991 3.51315396-2.62181819 4.3122974-.66644629 10.6493851 1.84545454 14.1350582 1.25652893 1.7082106 2.72479339 3.6131843 4.64661157 3.5461309 1.88016529-.0725494 2.58247934-1.138807 4.85140494-1.138807 2.2480992 0 2.9076033 1.138807 4.8676033 1.0948377 2.0178513-.0285801 3.2882645-1.7137068 4.5008265-3.4373068 1.4520661-1.9544392 2.0352066-3.8835959 2.0583471-3.9825271-.046281-.01429-3.917686-1.4180127-3.9570248-5.6643561M30.0107761 13.21207241c1.0112397-1.20146346 1.7031405-2.83602537 1.5110744-4.49477044-1.4636363.06155714-3.2940496.9618303-4.3480991 2.13691214-.932562 1.03547903-1.7656199 2.73269731-1.5504133 4.32878601 1.6441323.11651887 3.3322314-.78815123 4.387438-1.97092771"/></g><g fill="#FFF"><path d="M60.9461475 36.5136488h-2.6276033l-1.43933884-4.2969082h-5.0029752l-1.37107438 4.2969082h-2.55818182l4.95785124-14.6286146h3.0614876l4.9798347 14.6286146zm-4.50082643-6.09965302l-1.3016529-3.81874114c-.13768595-.39132753-.3968595-1.31028769-.77636363-2.75688048h-.04628099c-.15272728.62216681-.39685951 1.54112697-.73123967 2.75688048l-1.27966943 3.81874114h4.13520662zM73.6711062 31.10981131c0 1.79395089-.512562 3.21196359-1.538843 4.25293879-.9186777.9266548-2.0606611 1.3894326-3.4224793 1.3894326-1.4705785 0-2.5280992-.4979533-3.170248-1.4971576v5.5346465h-2.4667768V29.43237925c0-1.12671551-.0312397-2.28201111-.091405-3.46698606h2.1694215l.137686 1.67303513h.046281c.8226446-1.26082214 2.0710743-1.89068359 3.7464462-1.89068359 1.3097521 0 2.4031405.49135789 3.2778513 1.47517289.8735537.98601347 1.3120661 2.28091188 1.3120661 3.88689369zm-2.5130579.0857403c0-1.02668515-.2429752-1.87309583-.7312396-2.53923202-.5333885-.69361706-1.2495868-1.04207444-2.147438-1.04207444-.6085951 0-1.1616529.1934653-1.6557025.57599896-.4952066.38363288-.8191736.88598312-.9707438 1.50924916-.0763637.28909871-.1145455.52543415-.1145455.71230404v1.76097389c0 .7650673.2476033 1.4125165.7428099 1.9423476.4952066.5276326 1.1385124.7925482 1.9299174.7925482.9290909 0 1.6522314-.341862 2.1694215-1.0200898.5183471-.6804262.7775206-1.5774017.7775206-2.69202559zM86.4411888 31.10981131c0 1.79395089-.5125619 3.21196359-1.5388429 4.25293879-.9198348.9266548-2.0606612 1.3894326-3.4236364 1.3894326-1.4694215 0-2.5269422-.4979533-3.1702479-1.4971576v5.5346465h-2.4667769V29.43237925c0-1.12671551-.0312397-2.28201111-.091405-3.46698606h2.1694215l.137686 1.67303513h.046281c.8214876-1.26082214 2.0699173-1.89068359 3.7464463-1.89068359 1.308595 0 2.4031405.49135789 3.2790082 1.47517289.8723967.98601347 1.3120661 2.28091188 1.3120661 3.88689369zm-2.5142148.0857403c0-1.02668515-.2441323-1.87309583-.7323967-2.53923202-.5322314-.69361706-1.2472728-1.04207444-2.145124-1.04207444-.608595 0-1.1616529.1934653-1.6580165.57599896-.4940496.38363288-.8180166.88598312-.9695868 1.50924916-.0752066.28909871-.1157025.52543415-.1157025.71230404v1.76097389c0 .7650673.2487603 1.4125165.7416529 1.9423476.4952066.5265334 1.1385124.7925482 1.9322314.7925482.9302479 0 1.6533884-.341862 2.1694215-1.0200898.5183471-.6804262.7775207-1.5774017.7775207-2.69202559zM100.7188748 32.4113051c0 1.2443336-.4570248 2.2567287-1.3687603 3.0382846-1.0019835.8530061-2.4008265 1.2806083-4.1942149 1.2806083-1.6568595 0-2.985124-.3033887-3.9871075-.9112655l.5704133-1.9533399c1.0818181.6078767 2.2700826.9123647 3.5636363.9123647.930248 0 1.6533885-.2000607 2.1694215-.5968844.5183471-.3990222.7786777-.9299525.7786777-1.5938902 0-.594686-.2152066-1.0937385-.6409917-1.49935608-.4269422-.40341912-1.1327273-.78155583-2.1231405-1.12671551-2.6958678-.9552349-4.0449587-2.35346136-4.0449587-4.19028245 0-1.20036422.4766942-2.18307999 1.4266116-2.95144501.9510743-.76726578 2.2122314-1.15089867 3.781157-1.15089867 1.401157 0 2.568595.23193851 3.4953719.6947163l-.6190083 1.9104698c-.8723967-.44848773-1.8570248-.6727316-2.9585124-.6727316-.8700826 0-1.5538843.20335841-2.0409917.60787676-.4107438.3616482-.6201653.80244129-.6201653 1.32567697 0 .57709819.2371901 1.05636449.7104132 1.43120351.4095868.34735814 1.1570248.72439562 2.237686 1.12891397 1.3259504.50784641 2.2990082 1.09923464 2.9238016 1.77856165.6282645.67932701.9406612 1.52683691.9406612 2.53813276M108.895569 27.72416862h-2.7190083v5.12133418c0 1.3025931.4790083 1.9522407 1.4393389 1.9522407.4408264 0 .8064463-.0351755 1.0957025-.1088242l.0682644 1.7796609c-.4859504.1725798-1.1257851.2594194-1.9171901.2594194-.9753719 0-1.7355372-.2836026-2.286281-.84751-.5484297-.5650066-.8226446-1.5114476-.8226446-2.84372v-5.31699792h-1.6186777v-1.75877543h1.6186777v-1.93135526l2.4228099-.69471629v2.62607155h2.7190083v1.76317237M121.1392054 31.15268146c0 1.62137114-.4871075 2.95254424-1.4624794 3.99351944-1.0193388 1.0706545-2.3753719 1.6059818-4.0657851 1.6059818-1.631405 0-2.9284298-.5133426-3.8957025-1.5400277-.9672727-1.0266852-1.4509091-2.3215836-1.4509091-3.883596 0-1.63456191.5009918-2.9734297 1.4960331-4.0144049.9973554-1.04097521 2.3418182-1.56311166 4.0322314-1.56311166 1.6302479 0 2.9376859.51554104 3.9292562 1.54112696.9464463.99700582 1.4173554 2.28201112 1.4173554 3.86051206zm-2.5570248.0538625c0-.96622725-.2198347-1.79505017-.6606612-2.48866723-.5171901-.83761679-1.258843-1.25532596-2.2168595-1.25532596-.9869421 0-1.7471074.41770917-2.2619835 1.25532596-.4431405.69361706-.6618181 1.53673003-.6618181 2.53263661 0 .96732646.2186776 1.79834786.6618181 2.48866726.5333885.838716 1.2773554 1.2575244 2.2423141 1.2575244.9418182 0 1.681157-.4287015 2.2168595-1.2773107.4523967-.7101055.6803306-1.5444246.6803306-2.51285034zM129.1608583 28.02645814c-.2441323-.04287015-.5056199-.06375561-.7775207-.06375561-.8677686 0-1.538843.30888494-2.0109091.93325021-.4107438.54961732-.6155372 1.24433362-.6155372 2.08304965v5.53464641h-2.4667768v-7.22636852c0-1.21465428-.0242976-2.32378203-.0717356-3.32078785h2.1485951l.0902479 2.0181948h.0682645c.2614876-.69361706.6710743-1.25312749 1.2333884-1.67083666.5507438-.37813671 1.1431405-.56610584 1.7829752-.56610584.2279339 0 .4338843.01648852.6166942.04287016l.0023141 2.23584325M140.1930897 30.74046847c0 .41990763-.0289257.77386119-.090248 1.06295993h-7.3991735c.0266115 1.0420744.3864463 1.8401188 1.072562 2.3897361.6236363.4902586 1.4312396.7364872 2.4204958.7364872 1.0957025 0 2.0953719-.1648852 2.9943802-.4990525l.3864463 1.6268672c-1.0505785.4341977-2.2920661.6518462-3.7221488.6518462-1.7216529 0-3.0730578-.4814648-4.0565289-1.4421959-.98-.9618303-1.4728926-2.2556295-1.4728926-3.87370285 0-1.58949329.4558678-2.91407103 1.3722314-3.97043552.9580166-1.12781474 2.2527273-1.69172211 3.8818182-1.69172211 1.6001653 0 2.8115703.56390737 3.6330579 1.69172211.6525619.89367776.98 2.00170628.98 3.31749014zm-2.3522314-.60787676c.0173553-.69581552-.1446281-1.29379917-.4790083-1.80164557-.4269422-.65294538-1.0841322-.97831883-1.9646281-.97831883-.8076033 0-1.4636364.31767881-1.9634711.9552349-.4107438.50674717-.654876 1.1168224-.7300826 1.82253104l5.1371901.00219846z"/></g><g fill="#FFF"><path d="M55.25590036 16.64937922h-1.2923967l-.70694215-2.11162974h-2.45867768l-.67454546 2.11162974h-1.25768595l2.43669422-7.19009378h1.50413223l2.44942149 7.19009378zm-2.21223141-2.99761286l-.63983471-1.87749277c-.06710744-.19236606-.19090909-.63975456-.38181818-1.35425708h-.0231405c-.07867768.30888494-.19090909.75737267-.35983471 1.35425708l-.62826446 1.87749277h2.03289256zM61.3487929 11.46538866l-2.0664463 5.18399056h-1.17900823l-1.99933884-5.18399056h1.30280992l.93256198 2.74149119c.15735537.45838084.29157025.89587623.3922314 1.31138693h.03355372c.09024795-.37264055.22446285-.81013593.39223145-1.31138693l.9209917-2.74149119h1.2704132M65.7478012 16.64937922l-.090248-.59688441h-.0335537c-.3702479.48036554-.9094215.71450252-1.5943801.71450252-.976529 0-1.6730579-.65074691-1.6730579-1.52573768 0-1.27950913 1.167438-1.94124838 3.1887603-1.94124838v-.09563341c0-.68262471-.3818181-1.02448669-1.1338843-1.02448669-.5391735 0-1.0112396.12861046-1.4254545.38473213l-.2464463-.75737267c.5056199-.29899182 1.1338843-.44848773 1.8755372-.44848773 1.4254546 0 2.145124.71450251 2.145124 2.14460678v1.90937057c0 .52323569.0231405.92885327.0786777 1.2377382l-1.0910744-.00109923zm-.1689256-2.58210217c-1.3479339 0-2.0213224.30998417-2.0213224 1.04537214 0 .54412115.3482645.81013593.8307438.81013593.6178513 0 1.1905786-.4473885 1.1905786-1.05526525v-.80024282zM69.4606937 10.61128334c-.4038016 0-.7185124-.29899182-.7185124-.69361706 0-.39462523.325124-.6826247.7416529-.6826247.4153719 0 .7520662.28799947.7404959.6826247 0 .41660993-.3135537.69361706-.7636364.69361706zm-.5831405.85410532h1.212562v5.18399056h-1.212562v-5.18399056zM72.2444954 9.0866449h1.212562v7.56273432h-1.212562zM78.6104458 16.64937922l-.0914049-.59688441h-.0323967c-.370248.48036554-.9094215.71450252-1.5943802.71450252-.9765289 0-1.6730579-.65074691-1.6730579-1.52573768 0-1.27950913 1.1674381-1.94124838 3.1887604-1.94124838v-.09563341c0-.68262471-.3818182-1.02448669-1.1338843-1.02448669-.5391736 0-1.0112397.12861046-1.4254546.38473213l-.2476033-.7584719c.5056199-.29899183 1.1338843-.44848774 1.8755372-.44848774 1.4254546 0 2.146281.71450252 2.146281 2.14460678v1.90937058c0 .52323568.0231405.92885327.0763636 1.2377382h-1.0887603zm-.1689256-2.58210217c-1.3479339 0-2.0213223.30998417-2.0213223 1.04537214 0 .54412115.3482644.81013593.8307438.81013593.6178512 0 1.1905785-.4473885 1.1905785-1.05526525v-.80024282zM84.5344128 16.76699733c-.7740496 0-1.3456199-.30998417-1.7170248-.91786093h-.0231405l-.0694215.80024282h-1.0320661c.0323967-.41551069.0439669-.88598312.0439669-1.39712723v-6.1656071h1.214876v3.13721567h.0219835c.3598347-.57599895.9429752-.86399843 1.7401653-.86399843 1.3143802 0 2.2353719 1.06735684 2.2353719 2.62387309 0 1.60927951-1.0228099 2.78326211-2.4147107 2.78326211zm-.2464463-4.50246509c-.697686 0-1.3363637.57599895-1.3363637 1.37624177v.90686858c0 .71450251.5738843 1.30149381 1.3143802 1.30149381.9082645 0 1.4497521-.70351017 1.4497521-1.82363027-.0011571-1.04537214-.5634711-1.76097389-1.4277686-1.76097389zM88.743669 9.0866449h1.2114049v7.56273432H88.743669zM96.5547433 14.33439107h-3.64c.0242976.98161653.7069422 1.53563079 1.7170248 1.53563079.5403306 0 1.0343802-.0857403 1.4717356-.24512932l.188595.80024281c-.5160331.21325152-1.122314.31987728-1.8292562.31987728-1.7077686 0-2.7178512-1.02448668-2.7178512-2.61288074 0-1.58949329 1.0343801-2.78436134 2.5824793-2.78436134 1.3907438 0 2.2689256.98161653 2.2689256 2.46448406.0034711.20225918-.0069421.38363289-.0416529.52213646zm-1.1107438-.82112828c0-.80024282-.4280991-1.36524942-1.2033058-1.36524942-.6965289 0-1.2449586.57599895-1.3259504 1.36524942h2.5292562zM103.9041648 16.76699733c-1.5943801 0-2.6276033-1.13111245-2.6276033-2.66674324 0-1.60048564 1.0552066-2.74149119 2.7190083-2.74149119 1.5700826 0 2.6276033 1.07724994 2.6276033 2.65685012 0 1.62027186-1.0899174 2.75138431-2.7190083 2.75138431zm.046281-4.5662207c-.8758678 0-1.4370248.77825813-1.4370248 1.86650042 0 1.06735684.5727273 1.84561496 1.4254546 1.84561496.8527272 0 1.4254545-.83212062 1.4254545-1.86759965 0-1.05526526-.561157-1.84451573-1.4138843-1.84451573zM113.1418508 16.64937922h-1.210248v-2.97672741c0-.91676169-.3714049-1.37624177-1.1014876-1.37624177-.7185124 0-1.213719.5869913-1.213719 1.26961601v3.08335317h-1.2102479v-3.70222227c0-.45838084-.0138843-.94973873-.046281-1.48286753h1.0667769l.0566942.80024282h.0347107c.3228099-.55401426.9869422-.90686858 1.7285951-.90686858 1.1431405 0 1.8952066.83212062 1.8952066 2.1863777v3.10533786M121.0755698 12.32938708h-1.3340496v2.51724733c0 .6408538.234876.96073108.7057851.96073108.2128926 0 .3945455-.0219847.5391736-.0538625l.0335537.87499077c-.2360331.0857403-.5519008.12861045-.9418182.12861045-.9568595 0-1.5261157-.50125099-1.5261157-1.81373715v-2.61397998h-.794876v-.86399842h.794876v-.94973873l1.1894215-.34186198v1.29050147h1.3340496v.86509766M127.4970574 16.64937922h-1.213719v-2.95474271c0-.92775404-.371405-1.39712723-1.1003306-1.39712723-.6282645 0-1.211405.40561758-1.211405 1.22674586v3.12512408h-1.213719V9.0866449h1.213719v3.11413173h.0231405c.3806612-.5650066.932562-.84311297 1.6395042-.84311297 1.1558677 0 1.8628099.85300608 1.8628099 2.20836239v3.08335317M133.6929251 14.33439107h-3.6388429c.0231405.98161653.7057851 1.53563079 1.7170248 1.53563079.5414876 0 1.0343801-.0857403 1.4694215-.24512932l.189752.80024281c-.514876.21325152-1.122314.31987728-1.8304132.31987728-1.7066116 0-2.7166942-1.02448668-2.7166942-2.61288074 0-1.58949329 1.0332231-2.78436134 2.5813223-2.78436134 1.3919008 0 2.2689256.98161653 2.2689256 2.46448406.0046281.20225918-.0069421.38363289-.0404959.52213646zm-1.1119008-.82112828c0-.80024282-.4257851-1.36524942-1.2009917-1.36524942-.6965289 0-1.2461157.57599895-1.3259504 1.36524942h2.5269421z"/></g></g></svg>