<svg width="272" height="552" xmlns="http://www.w3.org/2000/svg" xmlns:xlink="http://www.w3.org/1999/xlink"><defs><ellipse id="a" cx="136" cy="517.999156" rx="18" ry="17.9991562"/><filter x="-2.8%" y="-2.8%" width="105.6%" height="105.6%" filterUnits="objectBoundingBox" id="b"><feGaussianBlur stdDeviation=".5" in="SourceAlpha" result="shadowBlurInner1"/><feOffset dy="1" in="shadowBlurInner1" result="shadowOffsetInner1"/><feComposite in="shadowOffsetInner1" in2="SourceAlpha" operator="arithmetic" k2="-1" k3="1" result="shadowInnerInner1"/><feColorMatrix values="0 0 0 0 0.745098054 0 0 0 0 0.745098054 0 0 0 0 0.745098054 0 0 0 1 0" in="shadowInnerInner1"/></filter><rect id="c" x="111" y="33" width="50" height="6" rx="3"/><filter x="-2%" y="-16.7%" width="104%" height="133.3%" filterUnits="objectBoundingBox" id="d"><feGaussianBlur stdDeviation=".5" in="SourceAlpha" result="shadowBlurInner1"/><feOffset dy="1" in="shadowBlurInner1" result="shadowOffsetInner1"/><feComposite in="shadowOffsetInner1" in2="SourceAlpha" operator="arithmetic" k2="-1" k3="1" result="shadowInnerInner1"/><feColorMatrix values="0 0 0 0 0.745098054 0 0 0 0 0.745098054 0 0 0 0 0.745098054 0 0 0 1 0" in="shadowInnerInner1"/></filter></defs><g fill="none" fill-rule="evenodd"><g><rect stroke="#DCDCDC" fill="#FFF" x=".5" y=".5" width="271" height="551" rx="36"/><path fill="#152935" d="M17.0627306 65.2367942h238.878229v419.522769H17.0627306z"/><use fill="#DCDCDC" xlink:href="#a"/><use fill="#000" filter="url(#b)" xlink:href="#a"/><g><use fill="#DCDCDC" xlink:href="#c"/><use fill="#000" filter="url(#d)" xlink:href="#c"/></g></g><path fill="#1D3649" d="M17.062731 66.240437H255.94096v419.522769H17.062731z"/><path d="M83.6276125 449.5322043c16.2026186 0 29.3366051-13.114026 29.3366051-29.28997 0-16.1759439-13.1339865-29.28996997-29.3366051-29.28996997-16.2026187 0-29.33660517 13.11402607-29.33660517 29.28996997 0 16.175944 13.13398647 29.28997 29.33660517 29.28997z" stroke="#FF5050" stroke-width="2.69866667"/><path d="M76.595418 414.17820523l.95893558-.95747823 6.07325865 6.06402878 6.07325867-6.06402878.9589356.95747823-6.07325869 6.06402878 6.07325869 6.06402879-.9589356.9574782-6.07325867-6.06402876-6.07325865 6.06402876-.95893558-.9574782 6.07325866-6.06402879z" fill="#FFF"/><path d="M190.3202605 449.5322043c16.2026186 0 29.3366051-13.114026 29.3366051-29.28997 0-16.1759439-13.1339865-29.28996997-29.3366051-29.28996997-16.2026187 0-29.33660517 13.11402607-29.33660517 29.28996997 0 16.175944 13.13398647 29.28997 29.33660517 29.28997z" stroke="#4178BE" stroke-width="2.69866667"/><path d="M187.44345327 424.7104661l-4.4750327-4.46823173-.95893557.95747823 5.49789731 5.42571 11.12365269-11.17057937-.9589356-.95747823z" fill="#FFF"/><text font-family="IBMPlexSans-Light, IBM Plex Sans" font-size="24" font-weight="300" fill="#FFF" transform="translate(17.062731 66.240437)"><tspan x="46.2511144" y="112.004309">Are you trying </tspan> <tspan x="64.2271144" y="144.004309">to sign-in?</tspan></text><g fill="#FFF"><path d="M237.838549 69.48878676h12.316999c.563181 0 1.007847.44910141 1.007847 1.00309608v3.60459378c0 .54394192-.451228 1.00309609-1.007847 1.00309609h-12.316999c-.563182 0-1.007848-.44910142-1.007848-1.00309609v-3.60459378c0-.54394192.451229-1.00309608 1.007848-1.00309608zM251.4819 71.2606139h.477756c.256141 0 .477756.21465138.477756.47943728v1.10825711c0 .25821798-.213898.47943727-.477756.47943727h-.477756V71.2606139zm-13.653523-1.47652262c-.375096 0-.679171.29900085-.679171.6770434v3.66609011c0 .37392074.311786.67704339.679171.67704339h12.337343c.375096 0 .679171-.29900084.679171-.67704339v-3.66609011c0-.37392075-.311786-.6770434-.679171-.6770434h-12.337343zm-.024743.29530453h12.386829c.189269 0 .335924.1490612.335924.33293752v3.7636928c0 .18555788-.150398.33293753-.335924.33293753h-12.386829c-.189269 0-.335924-.14906121-.335924-.33293753v-3.7636928c0-.18555787.150398-.33293752.335924-.33293752z"/><text font-family=".SFNSText, .SF NS Text" font-size="8.096" transform="translate(17.062731 66.240437)"><tspan x="197.083273" y="10.0671317">100%</tspan></text><text font-family=".SFNSText, .SF NS Text" font-size="8.096" transform="translate(17.062731 66.240437)"><tspan x="111.165224" y="9.444175">9:41 </tspan> <tspan x="113.173411" y="19.444175">AM</tspan></text><path d="M78.3387752 79.4276208l-1.352346 2.1855781-1.3781529-2.2207622c.3299438-.6084259.8150487-.9927685 1.3558615-.9927685.551165 0 1.0444689.3991974 1.3746374 1.0279526zm1.3887975-2.2444888l-.6939763 1.1215616c-.5092235-.912924-1.2477316-1.4870713-2.0694586-1.4870713-.8119084 0-1.5425748.5605088-2.0511071 1.4544923l-.6947118-1.1194619c.6866353-1.1799227 1.6628043-1.9170763 2.7458189-1.9170763 1.0923101 0 2.0759326.74986178 2.7634349 1.9475556zm1.3871583-2.2418397l-.6935016 1.12079457c-.8654916-1.48269402-2.0941927-2.40855636-3.4570916-2.40855636-1.3541235 0-2.5757719.91397809-3.4403285 2.37998601l-.6944116-1.11897814c1.0423903-1.75216436 2.5095065-2.84305376 4.1347401-2.84305376 1.6334898 0 3.1072516 1.10200091 4.1505932 2.86980768z"/><text font-family=".SFNSText, .SF NS Text" font-size="8.096" transform="translate(17.062731 66.240437)"><tspan x="28.0426667" y="14.5678095">Sketc</tspan> <tspan x="28.0426667" y="24.5678095">h</tspan></text><path d="M22.95806433 83.1552941c-.96797107 0-1.75266666-1.6019891-1.75266666-3.5781428 0-1.9761537.78469559-3.57814287 1.75266666-3.57814287S24.710731 77.6009976 24.710731 79.5771513c0 1.9761537-.7846956 3.5781428-1.75266667 3.5781428zm4.46133337 0c-.9679711 0-1.7526667-1.6019891-1.7526667-3.5781428 0-1.9761537.7846956-3.57814287 1.7526667-3.57814287.967971 0 1.7526666 1.60198917 1.7526666 3.57814287 0 1.9761537-.7846956 3.5781428-1.7526666 3.5781428zm4.4613333 0c-.9679711 0-1.7526667-1.6019891-1.7526667-3.5781428 0-1.9761537.7846956-3.57814287 1.7526667-3.57814287s1.7526667 1.60198917 1.7526667 3.57814287c0 1.9761537-.7846956 3.5781428-1.7526667 3.5781428zm4.4613333 0c-.967971 0-1.7526666-1.6019891-1.7526666-3.5781428 0-1.9761537.7846956-3.57814287 1.7526666-3.57814287.9679711 0 1.7526667 1.60198917 1.7526667 3.57814287 0 1.9761537-.7846956 3.5781428-1.7526667 3.5781428zm4.4613334 0c-.9679711 0-1.7526667-1.6019891-1.7526667-3.5781428 0-1.9761537.7846956-3.57814287 1.7526667-3.57814287.967971 0 1.7526666 1.60198917 1.7526666 3.57814287 0 1.9761537-.7846956 3.5781428-1.7526666 3.5781428z"/></g></g></svg>