<svg width="137" height="171" xmlns="http://www.w3.org/2000/svg" xmlns:xlink="http://www.w3.org/1999/xlink"><defs><path d="M42 141c0 2.209103-1.7908966 4-4 4s-4-1.790897-4-4 1.7908966-4 4-4 4 1.790897 4 4z" id="a"/><filter x="-12.5%" y="-12.5%" width="125%" height="125%" filterUnits="objectBoundingBox" id="b"><feGaussianBlur stdDeviation=".5" in="SourceAlpha" result="shadowBlurInner1"/><feOffset dy="1" in="shadowBlurInner1" result="shadowOffsetInner1"/><feComposite in="shadowOffsetInner1" in2="SourceAlpha" operator="arithmetic" k2="-1" k3="1" result="shadowInnerInner1"/><feColorMatrix values="0 0 0 0 0.549019635 0 0 0 0 0.549019635 0 0 0 0 0.549019635 0 0 0 1 0" in="shadowInnerInner1"/></filter><circle id="c" cx="11" cy="11" r="10.5"/><path id="d" d="M15.0575 16.25L11 12.1925 6.9425 16.25 5.75 15.0575 9.8075 11 5.75 6.9425 6.9425 5.75 11 9.8075 15.0575 5.75 16.25 6.9425 12.1925 11l4.0575 4.0575z"/><circle id="f" cx="11" cy="11" r="10.5"/><path id="g" d="M9.5 15.125l-3.75-3.75 1.1925-1.125L9.5 12.7625 15.0575 7.25 16.25 8.435z"/></defs><g fill="none" fill-rule="evenodd"><g transform="translate(30 19)"><path d="M67.4221219 151.5C71.8640645 151.5 75.5 147.872254 75.5 143.441441V8.55855856C75.5 4.12774642 71.8640645.5 67.4221219.5H8.5778781C4.13593546.5.5 4.12774642.5 8.55855856V143.441441C.5 147.872254 4.13593546 151.5 8.5778781 151.5h58.8442438z" stroke="#171717" fill="#FFF"/><use fill="#BEBEBE" xlink:href="#a"/><use fill="#000" filter="url(#b)" xlink:href="#a"/><path d="M6.5 129.5h63v-109h-63v109z" stroke="#171717" fill="#F3F3F3"/><path fill="#DFE0DF" d="M7 29h62v-8H7z"/><rect fill="#171717" fill-rule="nonzero" x="29" y="10" width="18" height="1" rx=".5"/></g><g transform="translate(43 120)"><use fill="#F1504F" fill-rule="nonzero" xlink:href="#c"/><mask id="e" fill="#fff"><use xlink:href="#d"/></mask><use fill="#FFF" fill-rule="nonzero" xlink:href="#d"/><path mask="url(#e)" d="M-1-1h24v24H-1z"/></g><g transform="translate(71 120)"><use fill="#3F76BE" fill-rule="nonzero" xlink:href="#f"/><mask id="h" fill="#fff"><use xlink:href="#g"/></mask><use fill="#FFF" fill-rule="nonzero" xlink:href="#g"/><path mask="url(#h)" d="M-1-1h24v24H-1z"/></g><g fill="#171717"><g fill-rule="nonzero" transform="translate(116 22)"><rect x="10" width="1" height="8" rx=".5"/><rect x="10" y="13" width="1" height="8" rx=".5"/><rect transform="rotate(-90 17 10.5)" x="16.5" y="6.5" width="1" height="8" rx=".5"/><rect transform="rotate(-90 4 10.5)" x="3.5" y="6.5" width="1" height="8" rx=".5"/></g><g fill-rule="nonzero" transform="translate(10)"><rect x="10" width="1" height="8" rx=".5"/><rect x="10" y="13" width="1" height="8" rx=".5"/><rect transform="rotate(-90 17 10.5)" x="16.5" y="6.5" width="1" height="8" rx=".5"/><rect transform="rotate(-90 4 10.5)" x="3.5" y="6.5" width="1" height="8" rx=".5"/></g><g fill-rule="nonzero" transform="translate(0 114)"><rect x="10" width="1" height="8" rx=".5"/><rect x="10" y="13" width="1" height="8" rx=".5"/><rect transform="rotate(-90 17 10.5)" x="16.5" y="6.5" width="1" height="8" rx=".5"/><rect transform="rotate(-90 4 10.5)" x="3.5" y="6.5" width="1" height="8" rx=".5"/></g></g><g fill="#BEBEBE"><g fill-rule="nonzero" transform="translate(48 65)"><rect x="5" width="30" height="3" rx=".5"/><rect y="10" width="40" height="3" rx=".5"/><rect x="10" y="20" width="20" height="3" rx=".5"/></g></g></g></svg>