<svg width="464" height="190" xmlns="http://www.w3.org/2000/svg" xmlns:xlink="http://www.w3.org/1999/xlink"><defs><path d="M.19991903 15.113713v26.2969998c0 16.7049842 23.73949397 26.497422 24.74901487 26.9076821l1.2766262.515179 1.2752564-.515179c.3068286-.1224055 2.7052969-1.1137553 5.8913832-2.8919975l-7.1666396-3.9734699v-7.8500916l13.714143 7.6039355c1.7752227-1.3195578 3.5394872-2.8153258 5.1640351-4.4792332L26.2255601 46.2598527v-7.8500916l23.1614507 12.8431588c1.1067746-1.8602942 1.9478138-3.8658608 2.4231242-5.9978682L26.2255601 31.0667779v-7.8500916l26.025641 14.4330848v-7.3443284l-26.025641-14.4303945V8.02495656l26.025641 14.43173964v-7.3443283L26.2255601.68197334.19991903 15.113713z" id="a"/><path d="M1.23269079 16.0497523c0 8.2118106 6.68163816 14.8709344 14.92584211 14.8709344 8.2442039 0 14.9245066-6.6591238 14.9245066-14.8709344S24.4027368 1.18014841 16.1585329 1.18014841c-8.24420395 0-14.92584211 6.65779329-14.92584211 14.86960389z" id="b"/></defs><g fill="none" fill-rule="evenodd"><path d="M125.5 78.5h-63v63.008032c0 5.3830751 2.6576746 7.991968 8.1507529 7.991968h46.6984942c4.5039729 0 8.1507529-3.5803378 8.1507529-7.991968V78.5zM62.5 120.4401862c-4.3291327-.1312389-7.5684496-1.9874233-9.9248013-5.7831639-2.1562434-3.4733952-2.6886735-8.8605028-1.9576302-13.929821.5471704-3.7942771 1.9998814-5.1472845 5.0233949-5.1472845H62.5v-7.0785381l-6.865773-.0000423c-4.1102102-.0553814-7.3291174 1.608658-9.7076224 5.0199599-4.0206208 5.7664591-3.0748287 21.4111348 2.6082604 27.3224924 4.0263258 4.1880483 8.6740859 6.3955254 13.965135 6.6389707v-7.0425732z" stroke="#BEBEBE" fill="#DCDCDC"/><path fill="#FFF" fill-rule="nonzero" d="M30 154h80v30H30z"/><path stroke="#BEBEBE" fill="#FFF" fill-rule="nonzero" d="M24.5 182.5h85v7h-85zM24.5 148.5h85v7h-85z"/><path fill="#BEBEBE" fill-rule="nonzero" d="M39 175h77v1H39zM39 169h77v1H39zM39 163h77v1H39zM30 155h1v28h-1z"/><g stroke="#BEBEBE"><path d="M396.3258547 99.3342116l-6.6439011 23.7520694 10.1355776 2.3509965 16.5196181-23.2076089c5.8418545-19.3521462 12.2559296-42.1068293 14.0434547-49.5272915-.1198492.0349001-.2459591.0724787-.3781085.1127888-.9442905.2880414-1.9977661.6538824-3.1330012 1.1040547-3.2450572 1.2868129-6.4902612 2.9894439-9.5166561 5.158865-2.4316093 1.7430589-4.6191916 3.7198138-6.5033819 5.944227-3.1201942 3.6818359-8.5781835 16.7896662-14.5236016 34.311899z" fill="#DCDCDC"/><path d="M399.4800779 111.6971042c-2.8894665-27.399137-7.5897064-53.509569-11.534875-59.9981149-1.6041824-2.6383113-3.472205-5.0626679-5.5517121-7.27851756-2.5450154-2.71187901-5.2723226-4.97768756-7.9986174-6.81593745-.8759977-.59065611-1.6938081-1.0971098-2.4355816-1.5212054 1.1834261 3.39933138 1.8897078 8.38179091 2.7196169 17.57049941.1299956 1.4393037.5887268 6.6919781.6194656 7.0395524.262569 2.9689522.4833454 5.3407086.7225548 7.7118395.6199815 6.1454836 1.3053918 11.6324092 2.1712032 17.070537l1.6823204 13.4469179 13.1505628 20.2467703 6.4550624-7.4723412z" fill="#DCDCDC"/><path d="M383.1839914 102.8387514c-6.3610587-24.4352897-14.419681-42.9849301-23.1297226-49.4875888-6.07040236-4.5317672-10.03458676-7.1866291-12.23112107-8.2974042-.54317037-.27467816-.95039875-.4389263-1.2161596-.51093664.00658174.01140703.01268103.02147193.01809627.03001677 4.96630916 8.12842257 10.4319125 24.15132407 15.3607343 43.81834787l21.1981774 14.4475832zm-36.85310263-58.33854266c-.00214997.00014163-.00426323.00030463-.00633976.00048894.0062296-.00055294.0123649-.00163872.01839452-.00319759zm.17374164-.19392123c-.00000927-.00093078-.00009248-.00174244-.00025116-.00242703.00047604.00205375.00098.00414227.00151144.00626429z" fill="#DCDCDC"/><path d="M393.2883742 119.4991835c-4.6226861-12.6121095-15.0380912-28.2564886-21.4542184-30.1992806-4.0503315-1.225766-8.2472817-2.0136547-12.3504845-2.4501877-1.4426323-.1534793-2.7723908-.2519103-3.95930832-.3062471-.04364659-.0019981-.08678285-.0039211-.12940451-.0057705 8.26398813 7.341885 19.96668923 23.316209 23.64313433 32.945143l14.2502814.0163429z" fill="#DCDCDC"/><path d="M421.2375821 98.8806365l-16.1227607.6777655c-5.0683884 7.4149931-9.4566442 14.7295113-12.3814842 20.7211348l18.1679869 3.5005385 10.336258-24.8994388z" fill="#BEBEBE"/><path d="M407.0050735 99.5285507c2.0243603 2.3411715 5.3582602 5.063922 12.1226191 10.1757998.1841683.1391641.1841683.1391641.3683922.2783321 8.8222402 6.6642965 11.880007 9.1970552 13.7277891 11.8357888 1.8413664 2.6288053 3.5740889 5.0452276 5.1465931 7.1947398.4093658.5595767.7858624 1.0709107 1.1268355 1.5311962.0464265-3.3717556-.1588288-7.2488107-.7927839-10.9577008-.6538255-3.8251399-1.6985669-6.9267419-3.1845905-9.038368-1.2303068-1.7473491-2.737673-3.5083473-4.4608734-5.2575458-1.7546359-1.7811085-3.6362265-3.4547472-5.51782-4.9708282-.6584383-.5305321-1.2695905-1.0032805-1.8176182-1.4120711-.2282384-.17025-.4105334-.303525-.5415369-.3977468l-16.1770061 1.018404z" fill="#DCDCDC"/><path d="M419.1955621 118.5h-52.3911242c-5.8779599 4.2675897-9.4337635 10.1256211-9.434556 16.2144234L355.5 167.751196c0 11.959386 9.8673991 21.748804 21.9260342 21.748804h31.1479316c12.0586351 0 21.9260342-9.789418 21.9268325-21.720561l-1.8714785-33.0932583c0-6.0607656-3.5557978-11.9185925-9.4337577-16.1861807z" fill="#FFF"/></g><path fill="#171717" fill-rule="nonzero" d="M0 189h464v1H0z"/><g><path d="M0 0h464v190H0z"/><g transform="translate(100)"><path d="M.5 189.5h263V29.5575535C263.5 13.5779479 250.316178.5 234.20316.5H29.7968397C13.6838218.5.5 13.5779479.5 29.5575535V189.5z" stroke="#171717" fill="#FFF"/><path d="M21.5 189.5h222v-145h-222v145z" stroke="#171717" fill="#4378BC"/><path fill="#3D6BA5" d="M22 53h221v-8H22z"/><rect fill="#171717" fill-rule="nonzero" x="101" y="23" width="62" height="3" rx=".5"/></g><text font-family="IBMPlexSans-Bold, IBM Plex Sans" font-size="16" font-weight="bold" fill="#FFF" transform="translate(193 68)"><tspan x=".092" y="96">IBM Verify</tspan></text><use fill="#FFF" xlink:href="#a" transform="translate(207.526316 68.960106)"/><g transform="translate(198.894737 87.206884)"><mask id="c" fill="#fff"><use xlink:href="#b"/></mask><path fill="#4579B9" mask="url(#c)" d="M-5.44494079 37.573158H37.7620066V-5.4723229H-5.44494079z"/></g><g stroke="#FEFEFE" stroke-width="1.77777778"><path d="M229.9783107 103.2563702c0 8.2118106-6.6816382 14.8709344-14.9258421 14.8709344-8.24286844 0-14.92584213-6.6591238-14.92584213-14.8709344s6.68297369-14.86960389 14.92584213-14.86960389c8.2442039 0 14.9258421 6.65779329 14.9258421 14.86960389z"/><path d="M209.07024555 103.234284l3.53513815 3.5417757 8.17075-8.0827526"/></g></g></g></svg>