<?xml version="1.0" encoding="UTF-8" standalone="no"?>
<svg width="313px" height="160px" viewBox="0 0 313 160" version="1.1" xmlns="http://www.w3.org/2000/svg" xmlns:xlink="http://www.w3.org/1999/xlink">
    <!-- Generator: Sketch 40.1 (33804) - http://www.bohemiancoding.com/sketch -->
    <title>Group 5</title>
    <desc>Created with Sketch.</desc>
    <defs>
        <polygon id="path-1" points="0 160.319588 313 160.319588 313 0.144360825 0 0.144360825"></polygon>
    </defs>
    <g id="Page-1" stroke="none" stroke-width="1" fill="none" fill-rule="evenodd">
        <g id="Step-1-Copy-2" transform="translate(-767.000000, -285.000000)">
            <g id="Group-5" transform="translate(767.000000, 284.000000)">
                <g id="Group-4">
                    <g id="Page-1">
                        <path d="M290.550327,148.062156 L197.405903,148.062156" id="Stroke-1" stroke="#050607" stroke-linecap="round" stroke-linejoin="round"></path>
                        <path d="M290.550327,142.96328 L197.405903,142.96328" id="Stroke-2" stroke="#050607" stroke-linecap="round" stroke-linejoin="round"></path>
                        <path d="M290.550327,137.864405 L197.405903,137.864405" id="Stroke-3" stroke="#050607" stroke-linecap="round" stroke-linejoin="round"></path>
                        <path d="M290.550327,132.76553 L197.405903,132.76553" id="Stroke-4" stroke="#050607" stroke-linecap="round" stroke-linejoin="round"></path>
                        <path d="M290.550327,127.666823 L197.405903,127.666823" id="Stroke-5" stroke="#050607" stroke-linecap="round" stroke-linejoin="round"></path>
                        <g id="Group-37" transform="translate(0.000000, 0.535211)">
                            <path d="M200.404308,115.273781 L297.996362,115.273781 L297.996362,122.388647 L200.404308,122.388647 C192.155244,122.388647 185.442572,129.090132 185.442572,137.329194 C185.442572,145.568256 192.155244,152.26974 200.404308,152.26974 L297.996362,152.26974 L297.996362,159.384606 L200.404308,159.384606 C188.225916,159.384606 178.317615,149.490338 178.317615,137.329194 C178.317615,125.168049 188.225916,115.273781 200.404308,115.273781 L200.404308,115.273781 Z" id="Stroke-6" stroke="#050607" stroke-linecap="round" stroke-linejoin="round"></path>
                            <path d="M294.757317,152.269908 L294.757317,122.388815" id="Stroke-8" stroke="#050607" stroke-linecap="round" stroke-linejoin="round"></path>
                            <path d="M93.3618419,159.479381 L44.1114602,159.479381 C39.4652613,159.479381 35.6974817,155.716938 35.6974817,151.07732 L35.6974817,83.8608247 L101.77582,83.8608247 L101.77582,151.07732 C101.77582,155.716938 98.0080409,159.479381 93.3618419,159.479381 L93.3618419,159.479381 Z" id="Stroke-10" stroke="#050607" stroke-linecap="round" stroke-linejoin="round"></path>
                            <path d="M35.9918027,153.256142 L101.47948,153.256142" id="Stroke-12" stroke="#050607" stroke-linecap="round" stroke-linejoin="round"></path>
                            <path d="M35.6979866,129.461671 C28.4064328,129.461671 22.4796263,123.543259 22.4796263,116.267073 L22.4796263,109.053063 C22.4796263,106.282063 24.7379382,104.025269 27.5145511,104.025269 L35.6979866,104.025269" id="Stroke-14" stroke="#050607" stroke-linecap="round" stroke-linejoin="round"></path>
                            <path d="M35.6979866,95.6237113 L27.5145511,95.6237113 C20.0967876,95.6237113 14.0656478,101.64799 14.0656478,109.053567 L14.0656478,116.267577 C14.0656478,128.174979 23.7669651,137.864237 35.6912554,137.864237" id="Stroke-16" stroke="#050607" stroke-linecap="round" stroke-linejoin="round"></path>
                            <path d="M235.633468,17.7895309 C235.633468,8.54726289 228.060887,0.985407216 218.805511,0.985407216 L94.1944892,0.985407216 C84.9391129,0.985407216 77.3665323,8.54726289 77.3665323,17.7895309 L77.3665323,159.384438 L235.633468,159.384438 L235.633468,17.7895309 Z" id="Fill-18" fill="#FEFEFE"></path>
                            <path d="M235.633468,17.7895309 C235.633468,8.54726289 228.060887,0.985407216 218.805511,0.985407216 L94.1944892,0.985407216 C84.9391129,0.985407216 77.3665323,8.54726289 77.3665323,17.7895309 L77.3665323,159.384438 L235.633468,159.384438 L235.633468,17.7895309 L235.633468,17.7895309 Z" id="Stroke-20" stroke="#050607"></path>
                            <path d="M139.365774,22.9453722 L173.634226,22.9453722" id="Stroke-22" stroke="#050607" stroke-linecap="round"></path>
                            <mask id="mask-2" fill="white">
                                <use xlink:href="#path-1"></use>
                            </mask>
                            <g id="Clip-25"></g>
                            <polygon id="Fill-24" fill="#4178BE" mask="url(#mask-2)" points="89.4742473 159.338227 222.52425 159.338227 222.52425 44.9055052 89.4742473 44.9055052"></polygon>
                            <polygon id="Stroke-26" stroke="#050607" stroke-linejoin="round" mask="url(#mask-2)" points="89.4742473 159.338227 222.52425 159.338227 222.52425 44.9055052 89.4742473 44.9055052"></polygon>
                            <path d="M0.841397849,159.479381 L312.158602,159.479381" id="Stroke-29" stroke="#050607" stroke-linecap="round" stroke-linejoin="round" mask="url(#mask-2)"></path>
                        </g>
                    </g>
                    <g id="Group-2" transform="translate(135.000000, 74.000000)">
                        <path d="M6,10.3769176 L6,29.2834426 C6,41.2935933 22.4186134,48.335194 23.1171816,48.629033 L23.9996232,49 L24.8828184,48.629033 C25.0945742,48.5402417 26.7528259,47.827654 28.9566692,46.5495861 L24,43.692463 L24,38.0485726 L33.485682,43.5163854 C34.7121326,42.5667701 35.933685,41.4911163 37.0565185,40.2954437 L24,32.7692532 L24,27.1253628 L40.0192163,36.3596569 C40.7852298,35.0217678 41.3662396,33.5807906 41.6951771,32.0465072 L24,21.8460434 L24,16.2025292 L42,26.5786944 L42,21.299375 L24,10.9232098 L24,5.2793194 L42,15.6554846 L42,10.3761652 L24,0 L6,10.3769176 Z" id="Mask" fill="#FFFFFF"></path>
                        <g id="Page-1" transform="translate(0.000000, 13.270833)">
                            <path d="M21.456325,11.3897437 C21.456325,17.1961587 16.8454917,21.903051 11.157575,21.903051 C5.46965833,21.903051 0.857908333,17.1961587 0.857908333,11.3897437 C0.857908333,5.58332882 5.46965833,0.876436458 11.157575,0.876436458 C16.8454917,0.876436458 21.456325,5.58332882 21.456325,11.3897437" id="Fill-1" fill="#4378BA"></path>
                            <path d="M21.456325,11.3897437 C21.456325,17.1961587 16.8454917,21.903051 11.157575,21.903051 C5.46965833,21.903051 0.857908333,17.1961587 0.857908333,11.3897437 C0.857908333,5.58332882 5.46965833,0.876436458 11.157575,0.876436458 C16.8454917,0.876436458 21.456325,5.58332882 21.456325,11.3897437 L21.456325,11.3897437 Z" id="Stroke-3" stroke="#FEFEFE" stroke-width="1.873"></path>
                            <polyline id="Stroke-5" stroke="#FEFEFE" stroke-width="1.872" points="7.02936667 11.3742101 9.46861667 13.8783142 15.1061167 8.16360417"></polyline>
                        </g>
                    </g>
                    <text id="IBM-Verify" font-family="HelvNeueRomanforIBM, HelvNeue Roman for IBM" font-size="11" font-weight="normal" fill="#FFFFFF">
                        <tspan x="131.3425" y="139">IBM</tspan>
                        <tspan x="150.5595" y="139" font-family="HelvNeueBoldforIBM, HelvNeue Bold for IBM" font-weight="bold"> Verify</tspan>
                    </text>
                </g>
                <rect id="Rectangle-2" fill="#1D3649" opacity="0.133745336" x="89" y="45" width="134" height="14"></rect>
            </g>
        </g>
    </g>
</svg>