<?xml version="1.0" encoding="UTF-8" standalone="no"?>
<svg
   xmlns:dc="http://purl.org/dc/elements/1.1/"
   xmlns:cc="http://creativecommons.org/ns#"
   xmlns:rdf="http://www.w3.org/1999/02/22-rdf-syntax-ns#"
   xmlns:svg="http://www.w3.org/2000/svg"
   xmlns="http://www.w3.org/2000/svg"
   xmlns:sodipodi="http://sodipodi.sourceforge.net/DTD/sodipodi-0.dtd"
   xmlns:inkscape="http://www.inkscape.org/namespaces/inkscape"
   id="Layer_1"
   data-name="Layer 1"
   viewBox="0 0 210 136.8"
   version="1.1"
   sodipodi:docname="email.svg"
   inkscape:version="0.92.2 5c3e80d, 2017-08-06">
  <metadata
     id="metadata4183">
    <rdf:RDF>
      <cc:Work
         rdf:about="">
        <dc:format>image/svg+xml</dc:format>
        <dc:type
           rdf:resource="http://purl.org/dc/dcmitype/StillImage" />
        <dc:title>Artboard 172</dc:title>
      </cc:Work>
    </rdf:RDF>
  </metadata>
  <sodipodi:namedview
     pagecolor="#ffffff"
     bordercolor="#666666"
     borderopacity="1"
     objecttolerance="10"
     gridtolerance="10"
     guidetolerance="10"
     inkscape:pageopacity="0"
     inkscape:pageshadow="2"
     inkscape:window-width="1440"
     inkscape:window-height="856"
     id="namedview4181"
     showgrid="false"
     inkscape:zoom="3.3236086"
     inkscape:cx="50.975839"
     inkscape:cy="40.866985"
     inkscape:window-x="0"
     inkscape:window-y="0"
     inkscape:window-maximized="1"
     inkscape:current-layer="layer1" />
  <defs
     id="defs4084">
    <style
       id="style4082">.cls-1{fill:#040406;}.cls-2{fill:#fff;}.cls-3{fill:#f2f2f3;}.cls-4{fill:#e0e0e0;}.cls-5{fill:#231f20;}</style>
  </defs>
  <title
     id="title4086">Artboard 172</title>
  <path
     class="cls-1"
     d="M181.1,73.56a.5.5,0,0,1-.45-.72L190,53.94l-4.68-2.31L174.62,73.27a.5.5,0,1,1-.89-.44l10.91-22.09a.5.5,0,0,1,.67-.23l5.57,2.75a.5.5,0,0,1,.23.67l-9.56,19.35A.5.5,0,0,1,181.1,73.56Z"
     id="path4088" />
  <path
     class="cls-1"
     d="M191.12,54.44a.5.5,0,0,1-.22-.05l-6.5-3.21a.5.5,0,0,1-.23-.67L194.79,29a.5.5,0,0,1,.29-.25.49.49,0,0,1,.38,0L202,32a.5.5,0,0,1,.23.67L191.57,54.16a.5.5,0,0,1-.29.25Zm-5.83-3.93,5.61,2.77,10.17-20.59-5.61-2.77Z"
     id="path4090" />
  <path
     class="cls-1"
     d="M201.74,33a.5.5,0,0,1-.22-.05L195,29.69a.5.5,0,0,1,.44-.89l6.05,3,.65-1.31-6.05-3a.5.5,0,1,1,.44-.89L203,29.8a.5.5,0,0,1,.23.67l-1.09,2.21a.5.5,0,0,1-.29.25Z"
     id="path4092" />
  <path
     class="cls-1"
     d="M195.24,29.74a.5.5,0,0,1-.45-.72l1.09-2.21a.5.5,0,0,1,.89.44l-1.09,2.21A.5.5,0,0,1,195.24,29.74Z"
     id="path4094" />
  <path
     class="cls-1"
     d="M184.5,47.76a.48.48,0,0,1-.17,0,.5.5,0,0,1-.29-.64l1.67-4.44L194,25.88a.5.5,0,0,1,.89.44L186.62,43,185,47.44A.5.5,0,0,1,184.5,47.76Z"
     id="path4096" />
  <path
     class="cls-1"
     d="M196.52,27.63a.5.5,0,0,1-.22-.05l-1.9-.94a.5.5,0,0,1,.44-.89l1.9.94a.5.5,0,0,1-.22.94Z"
     id="path4098" />
  <path
     class="cls-1"
     d="M195.24,29.74a.5.5,0,0,1-.22-.05l-1.52-.75a.5.5,0,0,1,.44-.89l1.52.75a.5.5,0,0,1-.22.94Z"
     id="path4100" />
  <path
     class="cls-1"
     d="M164.75,73.56a.5.5,0,0,1-.5-.46l-2.73-39.21-5.21.36L159,73a.5.5,0,0,1-.46.53.49.49,0,0,1-.53-.46l-2.74-39.27a.5.5,0,0,1,.46-.53l6.2-.43a.48.48,0,0,1,.53.46L165.25,73a.5.5,0,0,1-.46.53Z"
     id="path4102" />
  <path
     class="cls-1"
     d="M157,34.19a.49.49,0,0,1-.33-.12.5.5,0,0,1-.17-.34L156.08,27a.5.5,0,0,1,.46-.53l3.68-.26a.49.49,0,0,1,.36.12.5.5,0,0,1,.17.34l.47,6.72a.5.5,0,0,1-.46.53l-3.68.26Zm.06-6.76.4,5.73,2.69-.19-.4-5.73Z"
     id="path4104" />
  <path
     class="cls-1"
     d="M166,61.46a.5.5,0,0,1-.5-.46l-1.78-25.57a.5.5,0,0,1,.46-.53.48.48,0,0,1,.53.46l1.78,25.57a.5.5,0,0,1-.46.53Z"
     id="path4106" />
  <path
     class="cls-1"
     d="M162.38,39.49a.5.5,0,0,1,0-1l2.11-.15a.5.5,0,1,1,.07,1l-2.11.15Z"
     id="path4108" />
  <path
     class="cls-1"
     d="M162.77,45.12a.5.5,0,0,1,0-1l1.69-.12a.5.5,0,0,1,.07,1l-1.69.12Z"
     id="path4110" />
  <path
     class="cls-1"
     d="M153.3,73.55a.5.5,0,0,1-.48-.39l-4-18.15a4,4,0,0,0-2.06-2.7.5.5,0,1,1,.46-.88,5,5,0,0,1,2.57,3.37l4,18.15a.5.5,0,0,1-.38.59Z"
     id="path4112" />
  <path
     class="cls-1"
     d="M140.87,73.55a.5.5,0,0,1-.49-.39L137,57.59a5,5,0,0,1,.93-4.13.5.5,0,1,1,.79.61,4,4,0,0,0-.75,3.31l3.4,15.56a.5.5,0,0,1-.38.59Z"
     id="path4114" />
  <path
     class="cls-1"
     d="M137.84,54.36a.5.5,0,0,1-.48-.36l-4.64-15.93a.5.5,0,0,1,.05-.39.49.49,0,0,1,.32-.23L145,34.86a.49.49,0,0,1,.39.08.5.5,0,0,1,.21.34L148,51.69a.5.5,0,0,1-.39.56l-9.66,2.11Zm-4-16.06,4.36,15,8.75-1.91-2.28-15.43Z"
     id="path4116" />
  <path
     class="cls-1"
     d="M136,37.72a.5.5,0,0,1-.49-.39l-.89-4.08a.5.5,0,0,1,.38-.59l6.21-1.36a.49.49,0,0,1,.37.07.49.49,0,0,1,.22.31l.89,4.08a.5.5,0,0,1-.38.59l-6.21,1.35Zm-.3-4.19.68,3.11,5.24-1.14L141,32.38Z"
     id="path4118" />
  <path
     class="cls-1"
     d="M180.25,130.46H140.93a5,5,0,0,1-5-5V73.05a.5.5,0,0,1,.5-.5h48.35a.5.5,0,0,1,.5.5v52.39A5,5,0,0,1,180.25,130.46ZM136.91,73.55v51.89a4,4,0,0,0,4,4h39.32a4,4,0,0,0,4-4V73.55Z"
     id="path4120" />
  <path
     class="cls-1"
     d="M184.77,83.34H136.41a.5.5,0,1,1,0-1h48.35a.5.5,0,1,1,0,1Z"
     id="path4122" />
  <path
     class="cls-1"
     d="M155.64,130.46H18a.5.5,0,0,1-.5-.5v-17.1a.5.5,0,0,1,.5-.5H155.64a.5.5,0,0,1,.5.5V130A.5.5,0,0,1,155.64,130.46Zm-137.18-1H155.15v-16.1H18.46Z"
     id="path4124" />
  <path
     class="cls-1"
     d="M143.8,113.36H27.46a.5.5,0,0,1-.5-.5V99.28a.5.5,0,0,1,.5-.5H143.8a.5.5,0,0,1,.5.5v13.58A.5.5,0,0,1,143.8,113.36ZM28,112.37H143.3V99.78H28Z"
     id="path4126" />
  <path
     class="cls-1"
     d="M40,113.36a.5.5,0,0,1-.5-.5V99.28a.5.5,0,1,1,1,0v13.58A.5.5,0,0,1,40,113.36Z"
     id="path4128" />
  <path
     class="cls-1"
     d="M45.67,113.36a.5.5,0,0,1-.5-.5V99.28a.5.5,0,0,1,1,0v13.58A.5.5,0,0,1,45.67,113.36Z"
     id="path4130" />
  <path
     class="cls-1"
     d="M131.22,113.36a.5.5,0,0,1-.5-.5V99.28a.5.5,0,0,1,1,0v13.58A.5.5,0,0,1,131.22,113.36Z"
     id="path4132" />
  <path
     class="cls-1"
     d="M125.59,113.36a.5.5,0,0,1-.5-.5V99.28a.5.5,0,0,1,1,0v13.58A.5.5,0,0,1,125.59,113.36Z"
     id="path4134" />
  <path
     class="cls-1"
     d="M103.27,106.57H54.82a.5.5,0,0,1,0-1h48.44a.5.5,0,0,1,0,1Z"
     id="path4136" />
  <path
     class="cls-1"
     d="M119,121.91H31.07a.5.5,0,0,1,0-1H119a.5.5,0,1,1,0,1Z"
     id="path4138" />
  <path
     class="cls-2"
     d="M158.13,34.7a11.33,11.33,0,0,0-11.3-11.3H63.17a11.33,11.33,0,0,0-11.3,11.3v95.2H158.13Z"
     id="path4140" />
  <path
     class="cls-1"
     d="M158.63,130.4H51.38V34.7a11.81,11.81,0,0,1,11.8-11.8h83.66a11.81,11.81,0,0,1,11.8,11.8Zm-106.25-1H157.63V34.7a10.81,10.81,0,0,0-10.8-10.8H63.17a10.81,10.81,0,0,0-10.8,10.8Z"
     id="path4142" />
  <path
     class="cls-1"
     d="M116.51,38.67h-23a.5.5,0,1,1,0-1h23a.5.5,0,1,1,0,1Z"
     id="path4144" />
  <rect
     class="cls-3"
     x="60"
     y="52.93"
     width="90"
     height="76.93"
     id="rect4146" />
  <path
     class="cls-1"
     d="M150,130.37H60a.5.5,0,0,1-.5-.5V52.93a.5.5,0,0,1,.5-.5h90a.5.5,0,0,1,.5.5v76.93A.5.5,0,0,1,150,130.37Zm-89.5-1h89V53.43h-89Z"
     id="path4148" />
  <rect
     class="cls-4"
     x="60"
     y="52.93"
     width="90"
     height="8.21"
     id="rect4150" />
  <path
     class="cls-1"
     d="M150,130.37H60a.5.5,0,0,1-.5-.5V52.93a.5.5,0,0,1,.5-.5h90a.5.5,0,0,1,.5.5v76.93A.5.5,0,0,1,150,130.37Zm-89.5-1h89V53.43h-89Z"
     id="path4152" />
  <path
     class="cls-1"
     d="M209.5,130.46H.5a.5.5,0,0,1,0-1h209a.5.5,0,1,1,0,1Z"
     id="path4154" />
  <path
     class="cls-5"
     d="M77.75,93.07l-1.55.51a.9.9,0,0,1-.27,0,.54.54,0,0,1-.54-.54.57.57,0,0,1,.44-.54l1.82-.63a2.38,2.38,0,0,1,.68-.14h0a.61.61,0,0,1,.62.62v10a.62.62,0,0,1-.62.63.63.63,0,0,1-.62-.63Z"
     id="path4156" />
  <path
     class="cls-5"
     d="M78.37,103.15a.73.73,0,0,1-.72-.73V93.21l-1.42.46a1,1,0,0,1-.3.05.65.65,0,0,1-.64-.64.66.66,0,0,1,.51-.63l1.82-.63a2.48,2.48,0,0,1,.71-.15h0a.71.71,0,0,1,.72.72v10A.72.72,0,0,1,78.37,103.15Zm-.52-10.22v9.49a.53.53,0,0,0,.52.53.52.52,0,0,0,.52-.53v-10a.51.51,0,0,0-.52-.52h0a2.29,2.29,0,0,0-.65.14l-1.82.63c-.25.09-.38.24-.38.44a.45.45,0,0,0,.44.44.81.81,0,0,0,.24,0Z"
     id="path4158" />
  <path
     class="cls-5"
     d="M81.58,101.8l3.78-3.34c1.71-1.52,2.31-2.37,2.31-3.48a2.12,2.12,0,0,0-2.23-2.12,3.31,3.31,0,0,0-2.75,1.61.58.58,0,0,1-1-.35.55.55,0,0,1,.13-.35,4.19,4.19,0,0,1,3.75-2A3.19,3.19,0,0,1,89,94.87v0c0,1.61-.85,2.61-2.8,4.3l-3,2.63h5.37a.57.57,0,1,1,0,1.14H81.91a.59.59,0,0,1-.63-.59A.72.72,0,0,1,81.58,101.8Z"
     id="path4160" />
  <path
     class="cls-5"
     d="M88.57,103.07H81.91a.69.69,0,0,1-.73-.69.81.81,0,0,1,.34-.66l3.78-3.34C87,96.86,87.57,96,87.57,95a2,2,0,0,0-2.13-2,3.18,3.18,0,0,0-2.67,1.58.66.66,0,0,1-.54.26.67.67,0,0,1-.67-.67.65.65,0,0,1,.15-.41,4.28,4.28,0,0,1,3.83-2.08,3.28,3.28,0,0,1,3.53,3.23v0c0,1.65-.84,2.64-2.84,4.38l-2.76,2.45h5.1a.67.67,0,1,1,0,1.34ZM85.44,92.76A2.2,2.2,0,0,1,87.77,95c0,1.11-.57,2-2.34,3.56l-3.78,3.34a.61.61,0,0,0-.27.51.49.49,0,0,0,.53.49h6.66a.47.47,0,1,0,0-.94H82.95l3.16-2.8c2-1.7,2.77-2.66,2.77-4.23v0a3.09,3.09,0,0,0-3.33-3,4.08,4.08,0,0,0-3.67,2,.45.45,0,0,0-.11.29.48.48,0,0,0,.85.29A3.36,3.36,0,0,1,85.44,92.76Z"
     id="path4162" />
  <path
     class="cls-5"
     d="M90.88,100v0a3,3,0,0,1,2.28-2.72,2.82,2.82,0,0,1-1.9-2.55v0C91.26,93,93,91.74,95,91.74s3.78,1.22,3.78,2.93v0a2.82,2.82,0,0,1-1.9,2.55A3,3,0,0,1,99.2,100v0c0,1.88-1.8,3.15-4.16,3.15S90.88,101.85,90.88,100Zm7.06,0v0c0-1.23-1.28-2.11-2.9-2.11s-2.9.87-2.9,2.11v0c0,1.11,1.08,2.07,2.9,2.07S97.94,101.09,97.94,100Zm-.36-5.19v0c0-1.09-1.09-1.91-2.53-1.91s-2.53.81-2.53,1.91v0c0,1.2,1.12,2,2.53,2S97.57,96,97.57,94.78Z"
     id="path4164" />
  <path
     class="cls-5"
     d="M95,103.23c-2.47,0-4.26-1.36-4.26-3.23v0a3,3,0,0,1,2.13-2.73,2.82,2.82,0,0,1-1.75-2.54v0c0-1.7,1.7-3,3.88-3s3.88,1.33,3.88,3v0a2.82,2.82,0,0,1-1.75,2.54A3,3,0,0,1,99.3,100v0C99.3,101.87,97.51,103.23,95,103.23Zm0-11.39c-2.06,0-3.68,1.24-3.68,2.83v0a2.69,2.69,0,0,0,1.84,2.46l.22.1-.23.08A2.88,2.88,0,0,0,91,100v0c0,1.76,1.71,3,4.06,3s4.06-1.28,4.06-3v0a3,3,0,0,0-2.22-2.61l-.22-.08.22-.1a2.68,2.68,0,0,0,1.84-2.46v0C98.72,93.08,97.11,91.84,95,91.84Zm0,10.3c-2,0-3-1.09-3-2.17v0c0-1.26,1.29-2.2,3-2.2s3,.95,3,2.2v0C98,101.25,96.8,102.14,95,102.14Zm0-4.21c-1.59,0-2.8.86-2.8,2v0c0,1,1,2,2.8,2,1.65,0,2.8-.81,2.8-2v0C97.84,98.79,96.63,97.93,95,97.93Zm0-1a2.36,2.36,0,0,1-2.63-2.12v0c0-1.15,1.13-2,2.63-2s2.63.87,2.63,2v0A2.36,2.36,0,0,1,95,96.9Zm0-4c-1.39,0-2.43.78-2.43,1.81v0c0,1.12,1,1.93,2.43,1.93s2.43-.81,2.43-1.93v0C97.47,93.71,96.43,92.93,95,92.93Z"
     id="path4166" />
  <path
     class="cls-5"
     d="M111.6,100.35h-5.51a.6.6,0,0,1-.63-.6.94.94,0,0,1,.24-.6l5.76-7a.81.81,0,0,1,.7-.38.65.65,0,0,1,.66.65V99.3h1.25a.54.54,0,0,1,.54.54.53.53,0,0,1-.54.51h-1.25v2.11a.61.61,0,0,1-1.22,0Zm0-1V93.59l-4.65,5.71Z"
     id="path4168" />
  <path
     class="cls-5"
     d="M112.2,103.15a.7.7,0,0,1-.7-.7v-2h-5.41a.7.7,0,0,1-.73-.7,1,1,0,0,1,.26-.66l5.76-7a.91.91,0,0,1,.77-.42.75.75,0,0,1,.76.75V99.2h1.15a.65.65,0,0,1,.64.64.62.62,0,0,1-.64.61h-1.15v2A.7.7,0,0,1,112.2,103.15Zm0-11.32a.71.71,0,0,0-.62.34l-5.76,7a.83.83,0,0,0-.21.54.5.5,0,0,0,.53.5h5.61v2.2a.51.51,0,0,0,1,0v-2.2h1.35a.43.43,0,0,0,.44-.41.45.45,0,0,0-.44-.44h-1.35v-7A.55.55,0,0,0,112.16,91.84Zm-.46,7.56h-5l5-6.09Zm-4.54-.2h4.34V93.87Z"
     id="path4170" />
  <path
     class="cls-5"
     d="M116.38,101.8l3.78-3.34c1.71-1.52,2.31-2.37,2.31-3.48a2.12,2.12,0,0,0-2.23-2.12,3.31,3.31,0,0,0-2.75,1.61.58.58,0,0,1-1-.35.55.55,0,0,1,.13-.35,4.19,4.19,0,0,1,3.75-2,3.19,3.19,0,0,1,3.43,3.13v0c0,1.61-.85,2.61-2.8,4.3l-3,2.63h5.37a.57.57,0,1,1,0,1.14h-6.66a.59.59,0,0,1-.63-.59A.72.72,0,0,1,116.38,101.8Z"
     id="path4172" />
  <path
     class="cls-5"
     d="M123.37,103.07h-6.66a.69.69,0,0,1-.73-.69.81.81,0,0,1,.34-.66l3.78-3.34c1.72-1.53,2.28-2.36,2.28-3.41a2,2,0,0,0-2.13-2,3.18,3.18,0,0,0-2.67,1.58.66.66,0,0,1-.54.26.67.67,0,0,1-.67-.67.65.65,0,0,1,.15-.41,4.28,4.28,0,0,1,3.83-2.08,3.28,3.28,0,0,1,3.53,3.23v0c0,1.65-.84,2.64-2.84,4.38l-2.76,2.45h5.1a.67.67,0,1,1,0,1.34Zm-3.13-10.31A2.2,2.2,0,0,1,122.57,95c0,1.11-.57,2-2.34,3.56l-3.78,3.34a.61.61,0,0,0-.27.51.49.49,0,0,0,.53.49h6.66a.47.47,0,1,0,0-.94h-5.63l3.16-2.8c2-1.7,2.77-2.66,2.77-4.23v0a3.09,3.09,0,0,0-3.33-3,4.08,4.08,0,0,0-3.67,2,.45.45,0,0,0-.11.29.48.48,0,0,0,.85.29A3.36,3.36,0,0,1,120.24,92.76Z"
     id="path4174" />
  <path
     class="cls-5"
     d="M126.43,102.06a.6.6,0,0,1,.32-1.11.73.73,0,0,1,.4.13,3.69,3.69,0,0,0,2.41.95c2,0,3.34-2,3.29-4.86a3.55,3.55,0,0,1-3.13,1.77c-2.28,0-3.86-1.44-3.86-3.43v0a3.77,3.77,0,0,1,4-3.77,3.92,3.92,0,0,1,2.91,1.14c.84.84,1.38,2.07,1.38,4.29v0c0,3.51-1.87,6-4.61,6A5,5,0,0,1,126.43,102.06Zm6.17-6.69v0a2.6,2.6,0,0,0-2.82-2.52,2.54,2.54,0,0,0-2.66,2.6v0a2.48,2.48,0,0,0,2.72,2.42A2.6,2.6,0,0,0,132.61,95.36Z"
     id="path4176" />
  <path
     class="cls-5"
     d="M129.52,103.26a5,5,0,0,1-3.15-1.13.7.7,0,0,1,.38-1.29.82.82,0,0,1,.45.14,3.62,3.62,0,0,0,2.35.93,2.66,2.66,0,0,0,1.93-.83,5.32,5.32,0,0,0,1.27-3.61,3.61,3.61,0,0,1-3,1.54c-2.33,0-4-1.45-4-3.53v0a3.89,3.89,0,0,1,4.09-3.87,4,4,0,0,1,3,1.17,5.81,5.81,0,0,1,1.41,4.36v0C134.22,100.76,132.29,103.26,129.52,103.26ZM126.75,101a.5.5,0,0,0-.26.93h0a4.84,4.84,0,0,0,3,1.09c2.65,0,4.51-2.42,4.51-5.9v0c0-2-.42-3.29-1.35-4.22a3.82,3.82,0,0,0-2.84-1.11,3.66,3.66,0,0,0-3.89,3.67v0c0,2,1.55,3.33,3.76,3.33a3.47,3.47,0,0,0,3-1.73l.18-.29v.34a5.69,5.69,0,0,1-1.32,4.07,2.85,2.85,0,0,1-2.07.88,3.79,3.79,0,0,1-2.47-1A.62.62,0,0,0,126.75,101Zm3.1-3.09A2.57,2.57,0,0,1,127,95.44v0a2.64,2.64,0,0,1,2.76-2.7,2.72,2.72,0,0,1,2.92,2.62v0A2.7,2.7,0,0,1,129.85,98Zm-.06-5a2.45,2.45,0,0,0-2.56,2.5v0a2.38,2.38,0,0,0,2.62,2.32,2.51,2.51,0,0,0,2.65-2.4v0A2.5,2.5,0,0,0,129.79,92.91Z"
     id="path4178" />
  <rect
     style="fill:#f2f2f3;fill-opacity:1"
     id="rect4185"
     width="72.666092"
     height="23.864866"
     x="70.633904"
     y="88.505135" />
  <g
     inkscape:groupmode="layer"
     id="layer1"
     inkscape:label="Layer 1">
    <rect
       style="fill:none;fill-opacity:1;stroke:#000000"
       id="rect4192"
       width="49.996891"
       height="26.806849"
       x="79.958519"
       y="81.417557" />
    <path
       style="fill:none;stroke:#000000;stroke-width:1px;stroke-linecap:butt;stroke-linejoin:miter;stroke-opacity:1"
       d="M 79.958522,81.417555 104.4046,95.579746 129.95541,81.417555"
       id="path4206"
       inkscape:connector-curvature="0" />
  </g>
</svg>
