<svg id="Layer_1" data-name="Layer 1" xmlns="http://www.w3.org/2000/svg" viewBox="0 0 411.28 145.24"><defs><style>.cls-1,.cls-4,.cls-6,.cls-9{fill:none;}.cls-1{stroke:#bcbec0;}.cls-1,.cls-11,.cls-9{stroke-linecap:round;}.cls-1,.cls-10,.cls-11,.cls-2,.cls-6{stroke-linejoin:round;}.cls-11,.cls-2,.cls-8{fill:#fff;}.cls-10,.cls-11,.cls-2,.cls-4,.cls-6,.cls-8,.cls-9{stroke:#1b3649;}.cls-10,.cls-3{fill:#f2f2f3;}.cls-4,.cls-8,.cls-9{stroke-miterlimit:10;}.cls-5{fill:#e0e0e0;}.cls-7{fill:#152935;}</style></defs><title>Artboard 144</title><line class="cls-1" x1="22.19" y1="121.13" x2="90.27" y2="121.13"/><line class="cls-1" x1="22.19" y1="124.86" x2="90.27" y2="124.86"/><line class="cls-1" x1="22.19" y1="128.6" x2="90.27" y2="128.6"/><line class="cls-1" x1="22.19" y1="132.33" x2="90.27" y2="132.33"/><line class="cls-1" x1="22.19" y1="136.06" x2="90.27" y2="136.06"/><path class="cls-1" d="M88.08,144.74H16.75v-5.21H88.08a10.94,10.94,0,1,0,0-21.87H16.75v-5.21H88.08a16.14,16.14,0,1,1,0,32.29Z"/><line class="cls-1" x1="19.12" y1="117.66" x2="19.12" y2="139.53"/><path class="cls-1" d="M44.24,57.1h48.3a0,0,0,0,1,0,0v50.35a5,5,0,0,1-5,5H49.24a5,5,0,0,1-5-5V57.1A0,0,0,0,1,44.24,57.1Z"/><line class="cls-1" x1="44.46" y1="107.9" x2="92.33" y2="107.9"/><path class="cls-1" d="M44.24,90.48a9.67,9.67,0,0,1-9.66-9.66V75.54a3.69,3.69,0,0,1,3.68-3.68h6"/><path class="cls-1" d="M44.24,65.71h-6a9.84,9.84,0,0,0-9.83,9.83v5.28A15.83,15.83,0,0,0,44.24,96.63"/><path class="cls-1" d="M340,69.76c4.28-11.86,8.86-22.67,11.59-25.7,6.57-7.3,16.32-9.46,16.32-9.46-1,4.24-6,21.16-11.31,37.59"/><path class="cls-1" d="M341.16,79.88c-1.8-17-5.4-40.08-8.88-45.75C327,25.45,315.21,17.9,315.21,17.9c2.63,6,6.1,24.45,8.93,42.06"/><path class="cls-1" d="M314.07,73c1.3,5.89,2.36,11.46,3.09,16.08"/><path class="cls-1" d="M328.92,76c-3.87-15.28-10-32.91-17.77-38.73-12.88-9.7-10.64-6.16-10.64-6.16,4.06,6.71,8.25,20,11.53,33.28"/><path class="cls-1" d="M335.61,89.09c-2.8-7.82-10.86-21.47-16.62-23.19a52.83,52.83,0,0,0-13.57-2.1c5.84,4.75,15.71,17.45,18.64,25.27"/><path class="cls-1" d="M359.33,72l-13.23.81a128.27,128.27,0,0,0-10.41,16.23"/><path class="cls-1" d="M351.12,89.07c1.13-2.92,2.36-6.05,3.62-8.88"/><path class="cls-1" d="M346.09,72.84c3.83,4.82,17.26,12.65,20.48,17.13S372,97.34,372,97.34s.56-11.15-3.08-16.18A45.13,45.13,0,0,0,359.33,72Z"/><path class="cls-1" d="M354.78,89.07H314.35c-4.37,3.16-7.5,7.77-7.5,12.9l-1.43,25.56a17.25,17.25,0,0,0,17.2,17.2h23.89a17.25,17.25,0,0,0,17.2-17.2L362.28,102C362.28,96.84,359.15,92.23,354.78,89.07Z"/><path class="cls-2" d="M230.18,131.36h78.3V6.65A6.17,6.17,0,0,0,302.33.5H115.43a6,6,0,0,0-6,6V131.36h78.3"/><path class="cls-3" d="M187.74,131.36v2.31a3,3,0,0,0,3,3h36.44a3,3,0,0,0,3-3v-2.31h70.25V23a6,6,0,0,0-6-6H122.39a6,6,0,0,0-6,6v108.4h71.34Z"/><circle class="cls-4" cx="208.96" cy="9.61" r="3.01"/><rect class="cls-5" x="116.4" y="16.97" width="184.03" height="4.47"/><path class="cls-6" d="M230.17,131.36h70.25V16.57h-184V131.36h71.34"/><path class="cls-2" d="M230.17,131.36v2.31a3,3,0,0,1-3,3H190.73a3,3,0,0,1-3-3v-2.31h-93v13.38h228.4V131.36Z"/><rect class="cls-7" x="87.17" y="46.11" width="48.99" height="86.06" rx="1" ry="1"/><rect class="cls-8" x="82.74" y="28.8" width="57.84" height="115.94" rx="5" ry="5"/><circle class="cls-4" cx="111.66" cy="136.69" r="4.73"/><line class="cls-9" x1="105.4" y1="36.84" x2="117.93" y2="36.84"/><rect class="cls-10" x="87.17" y="44.87" width="48.99" height="83.76"/><rect class="cls-5" x="87.17" y="44.87" width="48.99" height="4.47"/><rect class="cls-6" x="87.17" y="44.87" width="48.99" height="83.76"/><line class="cls-11" y1="144.74" x2="411.28" y2="144.74"/></svg>