<?xml version="1.0" encoding="UTF-8" standalone="no"?>
<svg
   xmlns:dc="http://purl.org/dc/elements/1.1/"
   xmlns:cc="http://creativecommons.org/ns#"
   xmlns:rdf="http://www.w3.org/1999/02/22-rdf-syntax-ns#"
   xmlns:svg="http://www.w3.org/2000/svg"
   xmlns="http://www.w3.org/2000/svg"
   xmlns:sodipodi="http://sodipodi.sourceforge.net/DTD/sodipodi-0.dtd"
   xmlns:inkscape="http://www.inkscape.org/namespaces/inkscape"
   id="Layer_1"
   data-name="Layer 1"
   viewBox="0 0 210 136.8"
   version="1.1"
   sodipodi:docname="face.svg"
   inkscape:version="0.92.2 5c3e80d, 2017-08-06">
  <metadata
     id="metadata4183">
    <rdf:RDF>
      <cc:Work
         rdf:about="">
        <dc:format>image/svg+xml</dc:format>
        <dc:type
           rdf:resource="http://purl.org/dc/dcmitype/StillImage" />
        <dc:title>Artboard 172</dc:title>
      </cc:Work>
    </rdf:RDF>
  </metadata>
  <sodipodi:namedview
     pagecolor="#ffffff"
     bordercolor="#666666"
     borderopacity="1"
     objecttolerance="10"
     gridtolerance="10"
     guidetolerance="10"
     inkscape:pageopacity="0"
     inkscape:pageshadow="2"
     inkscape:window-width="1440"
     inkscape:window-height="856"
     id="namedview4181"
     showgrid="false"
     inkscape:zoom="3.3236086"
     inkscape:cx="47.400857"
     inkscape:cy="57.634819"
     inkscape:window-x="0"
     inkscape:window-y="0"
     inkscape:window-maximized="1"
     inkscape:current-layer="Layer_1" />
  <defs
     id="defs4084">
    <style
       id="style4082">.cls-1{fill:#040406;}.cls-2{fill:#fff;}.cls-3{fill:#f2f2f3;}.cls-4{fill:#e0e0e0;}.cls-5{fill:#231f20;}</style>
  </defs>
  <title
     id="title4086">Artboard 172</title>
  <path
     class="cls-1"
     d="M181.1,73.56a.5.5,0,0,1-.45-.72L190,53.94l-4.68-2.31L174.62,73.27a.5.5,0,1,1-.89-.44l10.91-22.09a.5.5,0,0,1,.67-.23l5.57,2.75a.5.5,0,0,1,.23.67l-9.56,19.35A.5.5,0,0,1,181.1,73.56Z"
     id="path4088" />
  <path
     class="cls-1"
     d="M191.12,54.44a.5.5,0,0,1-.22-.05l-6.5-3.21a.5.5,0,0,1-.23-.67L194.79,29a.5.5,0,0,1,.29-.25.49.49,0,0,1,.38,0L202,32a.5.5,0,0,1,.23.67L191.57,54.16a.5.5,0,0,1-.29.25Zm-5.83-3.93,5.61,2.77,10.17-20.59-5.61-2.77Z"
     id="path4090" />
  <path
     class="cls-1"
     d="M201.74,33a.5.5,0,0,1-.22-.05L195,29.69a.5.5,0,0,1,.44-.89l6.05,3,.65-1.31-6.05-3a.5.5,0,1,1,.44-.89L203,29.8a.5.5,0,0,1,.23.67l-1.09,2.21a.5.5,0,0,1-.29.25Z"
     id="path4092" />
  <path
     class="cls-1"
     d="M195.24,29.74a.5.5,0,0,1-.45-.72l1.09-2.21a.5.5,0,0,1,.89.44l-1.09,2.21A.5.5,0,0,1,195.24,29.74Z"
     id="path4094" />
  <path
     class="cls-1"
     d="M184.5,47.76a.48.48,0,0,1-.17,0,.5.5,0,0,1-.29-.64l1.67-4.44L194,25.88a.5.5,0,0,1,.89.44L186.62,43,185,47.44A.5.5,0,0,1,184.5,47.76Z"
     id="path4096" />
  <path
     class="cls-1"
     d="M196.52,27.63a.5.5,0,0,1-.22-.05l-1.9-.94a.5.5,0,0,1,.44-.89l1.9.94a.5.5,0,0,1-.22.94Z"
     id="path4098" />
  <path
     class="cls-1"
     d="M195.24,29.74a.5.5,0,0,1-.22-.05l-1.52-.75a.5.5,0,0,1,.44-.89l1.52.75a.5.5,0,0,1-.22.94Z"
     id="path4100" />
  <path
     class="cls-1"
     d="M164.75,73.56a.5.5,0,0,1-.5-.46l-2.73-39.21-5.21.36L159,73a.5.5,0,0,1-.46.53.49.49,0,0,1-.53-.46l-2.74-39.27a.5.5,0,0,1,.46-.53l6.2-.43a.48.48,0,0,1,.53.46L165.25,73a.5.5,0,0,1-.46.53Z"
     id="path4102" />
  <path
     class="cls-1"
     d="M157,34.19a.49.49,0,0,1-.33-.12.5.5,0,0,1-.17-.34L156.08,27a.5.5,0,0,1,.46-.53l3.68-.26a.49.49,0,0,1,.36.12.5.5,0,0,1,.17.34l.47,6.72a.5.5,0,0,1-.46.53l-3.68.26Zm.06-6.76.4,5.73,2.69-.19-.4-5.73Z"
     id="path4104" />
  <path
     class="cls-1"
     d="M166,61.46a.5.5,0,0,1-.5-.46l-1.78-25.57a.5.5,0,0,1,.46-.53.48.48,0,0,1,.53.46l1.78,25.57a.5.5,0,0,1-.46.53Z"
     id="path4106" />
  <path
     class="cls-1"
     d="M162.38,39.49a.5.5,0,0,1,0-1l2.11-.15a.5.5,0,1,1,.07,1l-2.11.15Z"
     id="path4108" />
  <path
     class="cls-1"
     d="M162.77,45.12a.5.5,0,0,1,0-1l1.69-.12a.5.5,0,0,1,.07,1l-1.69.12Z"
     id="path4110" />
  <path
     class="cls-1"
     d="M153.3,73.55a.5.5,0,0,1-.48-.39l-4-18.15a4,4,0,0,0-2.06-2.7.5.5,0,1,1,.46-.88,5,5,0,0,1,2.57,3.37l4,18.15a.5.5,0,0,1-.38.59Z"
     id="path4112" />
  <path
     class="cls-1"
     d="M140.87,73.55a.5.5,0,0,1-.49-.39L137,57.59a5,5,0,0,1,.93-4.13.5.5,0,1,1,.79.61,4,4,0,0,0-.75,3.31l3.4,15.56a.5.5,0,0,1-.38.59Z"
     id="path4114" />
  <path
     class="cls-1"
     d="M137.84,54.36a.5.5,0,0,1-.48-.36l-4.64-15.93a.5.5,0,0,1,.05-.39.49.49,0,0,1,.32-.23L145,34.86a.49.49,0,0,1,.39.08.5.5,0,0,1,.21.34L148,51.69a.5.5,0,0,1-.39.56l-9.66,2.11Zm-4-16.06,4.36,15,8.75-1.91-2.28-15.43Z"
     id="path4116" />
  <path
     class="cls-1"
     d="M136,37.72a.5.5,0,0,1-.49-.39l-.89-4.08a.5.5,0,0,1,.38-.59l6.21-1.36a.49.49,0,0,1,.37.07.49.49,0,0,1,.22.31l.89,4.08a.5.5,0,0,1-.38.59l-6.21,1.35Zm-.3-4.19.68,3.11,5.24-1.14L141,32.38Z"
     id="path4118" />
  <path
     class="cls-1"
     d="M180.25,130.46H140.93a5,5,0,0,1-5-5V73.05a.5.5,0,0,1,.5-.5h48.35a.5.5,0,0,1,.5.5v52.39A5,5,0,0,1,180.25,130.46ZM136.91,73.55v51.89a4,4,0,0,0,4,4h39.32a4,4,0,0,0,4-4V73.55Z"
     id="path4120" />
  <path
     class="cls-1"
     d="M184.77,83.34H136.41a.5.5,0,1,1,0-1h48.35a.5.5,0,1,1,0,1Z"
     id="path4122" />
  <path
     class="cls-1"
     d="M155.64,130.46H18a.5.5,0,0,1-.5-.5v-17.1a.5.5,0,0,1,.5-.5H155.64a.5.5,0,0,1,.5.5V130A.5.5,0,0,1,155.64,130.46Zm-137.18-1H155.15v-16.1H18.46Z"
     id="path4124" />
  <path
     class="cls-1"
     d="M143.8,113.36H27.46a.5.5,0,0,1-.5-.5V99.28a.5.5,0,0,1,.5-.5H143.8a.5.5,0,0,1,.5.5v13.58A.5.5,0,0,1,143.8,113.36ZM28,112.37H143.3V99.78H28Z"
     id="path4126" />
  <path
     class="cls-1"
     d="M40,113.36a.5.5,0,0,1-.5-.5V99.28a.5.5,0,1,1,1,0v13.58A.5.5,0,0,1,40,113.36Z"
     id="path4128" />
  <path
     class="cls-1"
     d="M45.67,113.36a.5.5,0,0,1-.5-.5V99.28a.5.5,0,0,1,1,0v13.58A.5.5,0,0,1,45.67,113.36Z"
     id="path4130" />
  <path
     class="cls-1"
     d="M131.22,113.36a.5.5,0,0,1-.5-.5V99.28a.5.5,0,0,1,1,0v13.58A.5.5,0,0,1,131.22,113.36Z"
     id="path4132" />
  <path
     class="cls-1"
     d="M125.59,113.36a.5.5,0,0,1-.5-.5V99.28a.5.5,0,0,1,1,0v13.58A.5.5,0,0,1,125.59,113.36Z"
     id="path4134" />
  <path
     class="cls-1"
     d="M103.27,106.57H54.82a.5.5,0,0,1,0-1h48.44a.5.5,0,0,1,0,1Z"
     id="path4136" />
  <path
     class="cls-1"
     d="M119,121.91H31.07a.5.5,0,0,1,0-1H119a.5.5,0,1,1,0,1Z"
     id="path4138" />
  <path
     class="cls-2"
     d="M158.13,34.7a11.33,11.33,0,0,0-11.3-11.3H63.17a11.33,11.33,0,0,0-11.3,11.3v95.2H158.13Z"
     id="path4140" />
  <path
     class="cls-1"
     d="M158.63,130.4H51.38V34.7a11.81,11.81,0,0,1,11.8-11.8h83.66a11.81,11.81,0,0,1,11.8,11.8Zm-106.25-1H157.63V34.7a10.81,10.81,0,0,0-10.8-10.8H63.17a10.81,10.81,0,0,0-10.8,10.8Z"
     id="path4142" />
  <path
     class="cls-1"
     d="M116.51,38.67h-23a.5.5,0,1,1,0-1h23a.5.5,0,1,1,0,1Z"
     id="path4144" />
  <rect
     class="cls-3"
     x="60"
     y="52.93"
     width="90"
     height="76.93"
     id="rect4146" />
  <path
     class="cls-1"
     d="M150,130.37H60a.5.5,0,0,1-.5-.5V52.93a.5.5,0,0,1,.5-.5h90a.5.5,0,0,1,.5.5v76.93A.5.5,0,0,1,150,130.37Zm-89.5-1h89V53.43h-89Z"
     id="path4148" />
  <rect
     class="cls-4"
     x="60"
     y="52.93"
     width="90"
     height="8.21"
     id="rect4150" />
  <path
     class="cls-1"
     d="M150,130.37H60a.5.5,0,0,1-.5-.5V52.93a.5.5,0,0,1,.5-.5h90a.5.5,0,0,1,.5.5v76.93A.5.5,0,0,1,150,130.37Zm-89.5-1h89V53.43h-89Z"
     id="path4152" />
  <path
     class="cls-1"
     d="M209.5,130.46H.5a.5.5,0,0,1,0-1h209a.5.5,0,1,1,0,1Z"
     id="path4154" />
  <g
     inkscape:groupmode="layer"
     id="layer1"
     inkscape:label="Layer 1" />
  <path
     style="fill:none;fill-opacity:1;stroke:#000000"
     id="path174"
     ry="13.297045"
     rx="12.233281"
     cy="86.909492"
     cx="103.9297" />
  <path
     style="fill:none;stroke:#000000;stroke-width:1px;stroke-linecap:butt;stroke-linejoin:miter;stroke-opacity:1"
     d="m 102.66007,102.95125 c 0,0 3.46009,0.90263 7.07062,-1.9557 l 8.42458,4.51316 v 6.168 h -15.4952"
     id="path186"
     inkscape:connector-curvature="0" />
  <g
     inkscape:groupmode="layer"
     id="layer2"
     inkscape:label="Layer 2">
    <path
       inkscape:connector-curvature="0"
       id="path208"
       d="m 105.55371,102.95125 c 0,0 -3.46009,0.90263 -7.070619,-1.9557 l -8.42458,4.51316 v 6.168 h 15.495199"
       style="fill:none;stroke:#000000;stroke-width:1px;stroke-linecap:butt;stroke-linejoin:miter;stroke-opacity:1" />
  </g>
  <ellipse
     style="fill:none;fill-opacity:1;stroke:#000000;stroke-width:0.90791953"
     id="path49"
     cx="104.10371"
     cy="90.765694"
     rx="8.1697407"
     ry="10.275885" />
</svg>
