<svg id="Layer_1" data-name="Layer 1" xmlns="http://www.w3.org/2000/svg" viewBox="0 0 210 136.8"><defs><style>.cls-1{fill:#040406;}.cls-2{fill:#fff;}.cls-3{fill:#f2f2f3;}.cls-4{fill:#e0e0e0;}</style></defs><title>Artboard 174</title><path class="cls-1" d="M195,122.39H132.46a.5.5,0,1,1,0-1H195a.5.5,0,1,1,0,1Z"/><path class="cls-1" d="M195,119H132.46a.5.5,0,1,1,0-1H195a.5.5,0,1,1,0,1Z"/><path class="cls-1" d="M195,115.54H132.46a.5.5,0,1,1,0-1H195a.5.5,0,1,1,0,1Z"/><path class="cls-1" d="M195,112.11H132.46a.5.5,0,1,1,0-1H195a.5.5,0,1,1,0,1Z"/><path class="cls-1" d="M195,108.68H132.46a.5.5,0,1,1,0-1H195a.5.5,0,1,1,0,1Z"/><path class="cls-1" d="M200,130.37H134.48a15.33,15.33,0,0,1,0-30.65H200a.5.5,0,0,1,.5.5V105a.5.5,0,0,1-.5.5H134.48a9.55,9.55,0,1,0,0,19.09H200a.5.5,0,0,1,.5.5v4.78A.5.5,0,0,1,200,130.37Zm-65.52-29.66a14.33,14.33,0,0,0,0,28.66h65v-3.79h-65a10.54,10.54,0,1,1,0-21.08h65v-3.79Z"/><path class="cls-1" d="M197.82,125.58a.5.5,0,0,1-.5-.5V105a.5.5,0,0,1,1,0v20.09A.5.5,0,0,1,197.82,125.58Z"/><path class="cls-1" d="M63.29,130.43H28.88A5.48,5.48,0,0,1,23.4,125V79.09a.5.5,0,0,1,.5-.5H68.26a.5.5,0,0,1,.5.5V125A5.48,5.48,0,0,1,63.29,130.43ZM24.4,79.59V125a4.48,4.48,0,0,0,4.48,4.48H63.29A4.48,4.48,0,0,0,67.76,125V79.59Z"/><path class="cls-1" d="M68.06,126.25h-44a.5.5,0,1,1,0-1h44a.5.5,0,1,1,0,1Z"/><path class="cls-1" d="M23.9,110.25a9.38,9.38,0,0,1-9.37-9.37V96a3.88,3.88,0,0,1,3.88-3.88H23.9a.5.5,0,0,1,0,1H18.41A2.89,2.89,0,0,0,15.52,96v4.85a8.38,8.38,0,0,0,8.38,8.37.5.5,0,1,1,0,1Z"/><path class="cls-1" d="M23.9,115.9a15,15,0,0,1-15-15V96a9.54,9.54,0,0,1,9.53-9.53H23.9a.5.5,0,1,1,0,1H18.41A8.54,8.54,0,0,0,9.88,96v4.85a14,14,0,0,0,14,14,.5.5,0,1,1,0,1Z"/><path class="cls-2" d="M158.13,34.67a11.33,11.33,0,0,0-11.3-11.3H63.17a11.33,11.33,0,0,0-11.3,11.3v95.2H158.13Z"/><path class="cls-1" d="M158.63,130.37H51.38V34.67a11.81,11.81,0,0,1,11.8-11.8h83.66a11.81,11.81,0,0,1,11.79,11.8Zm-106.25-1H157.63V34.67a10.81,10.81,0,0,0-10.8-10.8H63.17a10.81,10.81,0,0,0-10.8,10.8Z"/><path class="cls-1" d="M116.51,38.64h-23a.5.5,0,0,1,0-1h23a.5.5,0,0,1,0,1Z"/><rect class="cls-3" x="60" y="52.9" width="90" height="76.93"/><path class="cls-1" d="M150,130.34H60a.5.5,0,0,1-.5-.5V52.9a.5.5,0,0,1,.5-.5h90a.5.5,0,0,1,.5.5v76.93A.5.5,0,0,1,150,130.34Zm-89.5-1h89V53.4h-89Z"/><rect class="cls-4" x="60" y="52.9" width="90" height="8.21"/><path class="cls-1" d="M150,130.34H60a.5.5,0,0,1-.5-.5V52.9a.5.5,0,0,1,.5-.5h90a.5.5,0,0,1,.5.5v76.93A.5.5,0,0,1,150,130.34Zm-89.5-1h89V53.4h-89Z"/><path class="cls-1" d="M209.51,130.43H.5a.5.5,0,1,1,0-1h209a.5.5,0,1,1,0,1Z"/><path class="cls-1" d="M109.39,99.56a.5.5,0,0,1-.5-.5,3.89,3.89,0,0,0-7.78,0,.5.5,0,1,1-1,0,4.89,4.89,0,0,1,9.77,0A.5.5,0,0,1,109.39,99.56Z"/><path class="cls-1" d="M98.79,105.76a.5.5,0,0,1-.35-.15,9.28,9.28,0,1,1,15.84-6.56.5.5,0,0,1-1,0,8.28,8.28,0,1,0-14.14,5.86.5.5,0,0,1-.35.85Z"/><path class="cls-1" d="M118.17,99.56a.5.5,0,0,1-.5-.5,12.67,12.67,0,0,0-22.06-8.51.5.5,0,1,1-.74-.67,13.67,13.67,0,0,1,23.79,9.18A.5.5,0,0,1,118.17,99.56Z"/><path class="cls-1" d="M99.15,111.36a.5.5,0,0,1-.22-.05,13.68,13.68,0,0,1-6.54-17.52.5.5,0,0,1,.92.38,12.69,12.69,0,0,0,6.06,16.24.5.5,0,0,1-.22.94Z"/><path class="cls-1" d="M121.56,105.41a.5.5,0,0,1-.47-.66,17.14,17.14,0,0,0,0-11.37A.5.5,0,0,1,122,93a18.15,18.15,0,0,1,0,12A.5.5,0,0,1,121.56,105.41Z"/><path class="cls-1" d="M117.38,87.1A.5.5,0,0,1,117,87a17,17,0,0,0-8.6-4.61.5.5,0,1,1,.2-1,18,18,0,0,1,9.1,4.88.5.5,0,0,1-.35.85Z"/><path class="cls-1" d="M87.44,99.56a.5.5,0,0,1-.5-.5,18.12,18.12,0,0,1,16.7-18,.49.49,0,0,1,.53.46.5.5,0,0,1-.46.53,17.12,17.12,0,0,0-15.78,17A.5.5,0,0,1,87.44,99.56Z"/><path class="cls-1" d="M89.48,84a.5.5,0,0,1-.35-.85A22.45,22.45,0,0,1,116.9,80a.5.5,0,0,1-.53.84,21.46,21.46,0,0,0-26.53,3A.5.5,0,0,1,89.48,84Z"/><path class="cls-1" d="M113.78,105.86c-2.25,0-4.89-1.68-4.89-6.43a.5.5,0,1,1,1,0c0,3.35,1.49,5.44,3.89,5.44,2.58,0,3.89-2,3.89-5.8a.5.5,0,1,1,1,0C118.67,105,115.61,105.86,113.78,105.86Z"/><path class="cls-1" d="M112.19,110.83l-.15,0c-5-1.58-7.58-5.55-7.53-11.8V98.8a.5.5,0,1,1,1,0V99c0,5.75,2.26,9.4,6.84,10.84a.5.5,0,0,1-.15,1Z"/></svg>