<?xml version="1.0" encoding="UTF-8" standalone="no"?>
<svg width="22px" height="4px" viewBox="0 0 22 4" version="1.1" xmlns="http://www.w3.org/2000/svg" xmlns:xlink="http://www.w3.org/1999/xlink">
    <!-- Generator: Sketch 40.1 (33804) - http://www.bohemiancoding.com/sketch -->
    <title>overflow_menu-icon</title>
    <desc>Created with Sketch.</desc>
    <defs></defs>
    <g id="Page-1" stroke="none" stroke-width="1" fill="none" fill-rule="evenodd">
        <g id="Manage-Biometrics-2" transform="translate(-474.000000, -312.000000)" fill="#777677">
            <path d="M474,314 C474,312.9 474.9,312 476,312 C477.1,312 478,312.9 478,314 C478,315.1 477.1,316 476,316 C474.9,316 474,315.1 474,314 L474,314 Z M485,316 C486.1,316 487,315.1 487,314 C487,312.9 486.1,312 485,312 C483.9,312 483,312.9 483,314 C483,315.1 483.9,316 485,316 L485,316 Z M494,316 C495.1,316 496,315.1 496,314 C496,312.9 495.1,312 494,312 C492.9,312 492,312.9 492,314 C492,315.1 492.9,316 494,316 L494,316 Z" id="overflow_menu-icon"></path>
        </g>
    </g>
</svg>