<?xml version="1.0" encoding="UTF-8"?>
<svg width="210px" height="109px" viewBox="0 0 210 109" version="1.1" xmlns="http://www.w3.org/2000/svg" xmlns:xlink="http://www.w3.org/1999/xlink">
    <title>phone_error</title>
    <g id="Page-1" stroke="none" stroke-width="1" fill="none" fill-rule="evenodd">
        <g id="phone_error" fill-rule="nonzero">
            <path d="M181.1,51.56 C180.927249,51.5603461 180.766557,51.4714932 180.674999,51.3250005 C180.583441,51.1785077 180.573989,50.9951301 180.65,50.84 L190,31.94 L185.32,29.63 L174.62,51.27 C174.555774,51.4519857 174.392549,51.5807623 174.200613,51.6008759 C174.008677,51.6209894 173.822302,51.5288486 173.721743,51.3641312 C173.621185,51.1994138 173.624398,50.9915305 173.73,50.83 L184.64,28.74 C184.698165,28.6204817 184.801525,28.5290423 184.927244,28.4858851 C185.052963,28.4427279 185.190692,28.4514053 185.31,28.51 L190.88,31.26 C190.999518,31.3181648 191.090958,31.4215253 191.134115,31.5472441 C191.177272,31.672963 191.168595,31.8106919 191.11,31.93 L181.55,51.28 C181.465873,51.4516955 181.291198,51.5603826 181.1,51.56 Z" id="Path" fill="#040406"></path>
            <path d="M191.12,32.4400042 C191.043815,32.4403118 190.968566,32.4232098 190.9,32.39 L184.4,29.18 C184.280482,29.1218352 184.189042,29.0184747 184.145885,28.8927559 C184.102728,28.767037 184.111405,28.6293081 184.17,28.51 L194.79,7 C194.849667,6.8814894 194.953992,6.79155423 195.08,6.75 C195.20151,6.69888479 195.33849,6.69888479 195.46,6.75 L202,10 C202.119518,10.0581648 202.210958,10.1615253 202.254115,10.2872441 C202.297272,10.412963 202.288595,10.5506919 202.23,10.67 L191.57,32.16 C191.510333,32.2785106 191.406008,32.3684458 191.28,32.41 L191.12,32.4400042 Z M185.29,28.51 L190.9,31.28 L201.07,10.69 L195.46,7.92 L185.29,28.51 Z" id="Shape" fill="#040406"></path>
            <path d="M201.74,11.0000042 C201.663815,11.0003118 201.588566,10.9832098 201.52,10.95 L195,7.69 C194.788224,7.55154992 194.713251,7.27672051 194.825383,7.04990824 C194.937514,6.82309598 195.201406,6.71579552 195.44,6.8 L201.49,9.8 L202.14,8.49 L196.09,5.49 C195.908014,5.42577362 195.779238,5.26254856 195.759124,5.07061294 C195.739011,4.87867732 195.831151,4.69230162 195.995869,4.5917431 C196.160586,4.49118458 196.36847,4.49439816 196.53,4.6 L203,7.8 C203.119518,7.85816483 203.210958,7.96152532 203.254115,8.08724414 C203.297272,8.21296295 203.288595,8.3506919 203.23,8.47 L202.14,10.68 C202.080333,10.7985106 201.976008,10.8884458 201.85,10.93 L201.74,11.0000042 Z" id="Path" fill="#040406"></path>
            <path d="M195.24,7.74000101 C195.067249,7.74034606 194.906557,7.65149325 194.814999,7.50500047 C194.723441,7.3585077 194.713989,7.17513007 194.79,7.02 L195.88,4.81 C196.01845,4.5982243 196.293279,4.52325068 196.520092,4.63538259 C196.746904,4.74751449 196.854204,5.01140625 196.77,5.25 L195.68,7.46 C195.597481,7.62849152 195.427583,7.73660836 195.24,7.74000101 Z" id="Path" fill="#040406"></path>
            <path d="M184.5,25.76 C184.443785,25.7701146 184.386215,25.7701146 184.33,25.76 C184.074466,25.6619891 183.945217,25.3767483 184.04,25.12 L185.71,20.68 L194,3.88 C194.13845,3.6682243 194.413279,3.59325068 194.640092,3.70538259 C194.866904,3.81751449 194.974204,4.08140625 194.89,4.32 L186.62,21 L185,25.44 C184.921538,25.6447694 184.718806,25.7745177 184.5,25.76 L184.5,25.76 Z" id="Path" fill="#040406"></path>
            <path d="M196.52,5.63000419 C196.443815,5.63031181 196.368566,5.61320983 196.3,5.58 L194.4,4.64 C194.188224,4.50154992 194.113251,4.22672051 194.225383,3.99990824 C194.337514,3.77309598 194.601406,3.66579552 194.84,3.75 L196.74,4.69 C196.938946,4.7970687 197.041376,5.02424656 196.989891,5.24422973 C196.938405,5.46421291 196.745798,5.62233951 196.52,5.63000419 L196.52,5.63000419 Z" id="Path" fill="#040406"></path>
            <path d="M195.24,7.74000419 C195.163815,7.74031181 195.088566,7.72320983 195.02,7.69 L193.5,6.94 C193.288224,6.80154992 193.213251,6.52672051 193.325383,6.29990824 C193.437514,6.07309598 193.701406,5.96579552 193.94,6.05 L195.46,6.8 C195.658946,6.9070687 195.761376,7.13424656 195.709891,7.35422973 C195.658405,7.57421291 195.465798,7.73233951 195.24,7.74000419 L195.24,7.74000419 Z" id="Path" fill="#040406"></path>
            <path d="M164.75,51.5600026 C164.488753,51.5608372 164.270899,51.360411 164.25,51.1 L161.52,11.89 L156.31,12.25 L159,51 C159.017226,51.2726743 158.812385,51.5086861 158.54,51.53 C158.408327,51.5410068 158.277789,51.4983694 158.178001,51.4117602 C158.078212,51.3251511 158.01763,51.2019118 158.01,51.07 L155.27,11.8 C155.252774,11.5273257 155.457615,11.2913139 155.73,11.27 L161.93,10.84 C162.062307,10.8260547 162.194467,10.8676469 162.294941,10.9548508 C162.395415,11.0420546 162.45519,11.1670474 162.46,11.3 L165.25,51 C165.267226,51.2726743 165.062385,51.5086861 164.79,51.53 L164.75,51.5600026 Z" id="Path" fill="#040406"></path>
            <path d="M157,12.1900767 C156.878953,12.1921407 156.761398,12.1493937 156.67,12.07 C156.570782,11.9834672 156.509695,11.8612944 156.5,11.73 L156.08,5 C156.062774,4.7273257 156.267615,4.49131387 156.54,4.47 L160.22,4.21 C160.351247,4.2000243 160.480988,4.24327143 160.58,4.33 C160.679218,4.41653279 160.740305,4.53870556 160.75,4.67 L161.22,11.39 C161.237226,11.6626743 161.032385,11.8986861 160.76,11.92 L157.08,12.18 L157,12.1900767 Z M157.06,5.43 L157.46,11.16 L160.15,10.97 L159.75,5.24 L157.06,5.43 Z" id="Shape" fill="#040406"></path>
            <path d="M166,39.4600026 C165.738753,39.4608372 165.520899,39.260411 165.5,39 L163.72,13.43 C163.702774,13.1573257 163.907615,12.9213139 164.18,12.9 C164.312307,12.8860547 164.444467,12.9276469 164.544941,13.0148508 C164.645415,13.1020546 164.70519,13.2270474 164.71,13.36 L166.49,38.93 C166.507226,39.2026743 166.302385,39.4386861 166.03,39.4600026 L166,39.4600026 Z" id="Path" fill="#040406"></path>
            <path d="M162.38,17.49 C162.103858,17.49 161.88,17.2661424 161.88,16.99 C161.88,16.7138576 162.103858,16.49 162.38,16.49 L164.49,16.34 C164.766142,16.32067 165.00567,16.5288576 165.025,16.805 C165.04433,17.0811424 164.836142,17.32067 164.56,17.34 L162.45,17.49 L162.38,17.49 Z" id="Path" fill="#040406"></path>
            <path d="M162.77,23.12 C162.493858,23.12 162.27,22.8961424 162.27,22.62 C162.27,22.3438576 162.493858,22.12 162.77,22.12 L164.46,22 C164.736142,21.9806701 164.97567,22.1888576 164.995,22.465 C165.01433,22.7411424 164.806142,22.98067 164.53,23 L162.84,23.12 L162.77,23.12 Z" id="Path" fill="#040406"></path>
            <path d="M153.3,51.55 C153.069147,51.5464151 152.870766,51.385231 152.82,51.16 L148.82,33.01 C148.568445,31.848704 147.81361,30.859358 146.76,30.31 C146.579737,30.241517 146.454921,30.0754767 146.439229,29.8832826 C146.423536,29.6910885 146.519764,29.5070002 146.686531,29.4101825 C146.853298,29.3133649 147.060876,29.321076 147.22,29.43 C148.533929,30.116755 149.47533,31.3511993 149.79,32.8 L153.79,50.95 C153.845807,51.2174577 153.676591,51.4801879 153.41,51.54 L153.3,51.55 Z" id="Path" fill="#040406"></path>
            <path d="M140.87,51.5500051 C140.635398,51.5510552 140.431611,51.3888572 140.38,51.16 L137,35.59 C136.683154,34.14354 137.023741,32.6310394 137.93,31.46 C138.034384,31.3060533 138.215595,31.2227725 138.4004,31.2438138 C138.585205,31.2648551 138.743057,31.3867403 138.810162,31.5602122 C138.877267,31.7336842 138.842535,31.9300681 138.72,32.07 C137.991115,33.0073297 137.716332,34.2200374 137.97,35.38 L141.37,50.94 C141.425807,51.2074577 141.256591,51.4701879 140.99,51.53 L140.87,51.5500051 Z" id="Path" fill="#040406"></path>
            <path d="M137.84,32.36 C137.617778,32.36 137.422222,32.2133333 137.36,32 L132.72,16.07 C132.682707,15.9386268 132.700773,15.7977168 132.77,15.68 C132.839778,15.5619284 132.955846,15.4785048 133.09,15.45 L145,12.86 C145.135463,12.8302734 145.277179,12.8593433 145.39,12.94 C145.504217,13.0192167 145.580303,13.1424037 145.6,13.28 L148,29.69 C148.037391,29.950157 147.866979,30.1948506 147.61,30.25 L137.95,32.36 L137.84,32.36 Z M133.84,16.3 L138.2,31.3 L146.95,29.39 L144.67,13.96 L133.84,16.3 Z" id="Shape" fill="#040406"></path>
            <path d="M136,15.7200051 C135.765398,15.7210552 135.561611,15.5588572 135.51,15.33 L134.62,11.25 C134.564193,10.9825423 134.733409,10.7198121 135,10.66 L141.21,9.3 C141.337734,9.27311959 141.470913,9.29831573 141.58,9.37 C141.692061,9.4395192 141.771369,9.55127254 141.8,9.68 L142.69,13.76 C142.745807,14.0274577 142.576591,14.2901879 142.31,14.35 L136.1,15.7 L136,15.7200051 Z M135.7,11.53 L136.38,14.64 L141.62,13.5 L141,10.38 L135.7,11.53 Z" id="Shape" fill="#040406"></path>
            <path d="M180.25,108.46009 L140.93,108.46009 C138.168576,108.46009 135.93,106.221424 135.93,103.46 L135.93,51.05 C135.93,50.7738576 136.153858,50.55 136.43,50.55 L184.78,50.55 C185.056142,50.55 185.28004,50.7738576 185.28004,51.05 L185.28004,103.44 C185.285363,104.77476 184.756818,106.056255 183.812055,106.99914 C182.867291,107.942026 181.584746,108.468019 180.25,108.46009 L180.25,108.46009 Z M136.91,51.55 L136.91,103.44 C136.91,105.649139 138.700861,107.44 140.91,107.44 L180.23,107.44 C182.439139,107.44 184.23,105.649139 184.23,103.44 L184.23,51.55 L136.91,51.55 Z" id="Shape" fill="#040406"></path>
            <path d="M184.77,61.34 L136.41,61.34 C136.133858,61.34 135.91,61.1161424 135.91,60.84 C135.91,60.5638576 136.133858,60.34 136.41,60.34 L184.76,60.34 C185.036142,60.34 185.26,60.5638576 185.26,60.84 C185.26,61.1161424 185.036142,61.34 184.76,61.34 L184.77,61.34 Z" id="Path" fill="#040406"></path>
            <path d="M155.64,108.460003 L18,108.460003 C17.7238576,108.460003 17.5,108.236142 17.5,107.96 L17.5,90.86 C17.5,90.5838576 17.7238576,90.36 18,90.36 L155.64,90.36 C155.916142,90.36 156.14,90.5838576 156.14,90.86 L156.14,108 C156.119101,108.260411 155.901247,108.460837 155.64,108.460003 L155.64,108.460003 Z M18.46,107.46 L155.15,107.46 L155.15,91.36 L18.46,91.36 L18.46,107.46 Z" id="Shape" fill="#040406"></path>
            <path d="M143.8,91.36 L27.46,91.36 C27.1838576,91.36 26.96,91.1361424 26.96,90.86 L26.96,77.28 C26.96,77.0038576 27.1838576,76.78 27.46,76.78 L143.8,76.78 C144.076142,76.78 144.3,77.0038576 144.3,77.28 L144.3,90.86 C144.3,91.1361424 144.076142,91.36 143.8,91.36 Z M28,90.37 L143.3,90.37 L143.3,77.78 L28,77.78 L28,90.37 Z" id="Shape" fill="#040406"></path>
            <path d="M40,91.36 C39.7238576,91.36 39.5,91.1361424 39.5,90.86 L39.5,77.28 C39.5,77.0038576 39.7238576,76.78 40,76.78 C40.2761424,76.78 40.5,77.0038576 40.5,77.28 L40.5,90.86 C40.5,91.1361424 40.2761424,91.36 40,91.36 Z" id="Path" fill="#040406"></path>
            <path d="M45.67,91.36 C45.3938576,91.36 45.17,91.1361424 45.17,90.86 L45.17,77.28 C45.17,77.0038576 45.3938576,76.78 45.67,76.78 C45.9461424,76.78 46.17,77.0038576 46.17,77.28 L46.17,90.86 C46.17,91.1361424 45.9461424,91.36 45.67,91.36 Z" id="Path" fill="#040406"></path>
            <path d="M131.22,91.36 C130.943858,91.36 130.72,91.1361424 130.72,90.86 L130.72,77.28 C130.72,77.0038576 130.943858,76.78 131.22,76.78 C131.496142,76.78 131.72,77.0038576 131.72,77.28 L131.72,90.86 C131.72,91.1361424 131.496142,91.36 131.22,91.36 Z" id="Path" fill="#040406"></path>
            <path d="M125.59,91.36 C125.313858,91.36 125.09,91.1361424 125.09,90.86 L125.09,77.28 C125.09,77.0038576 125.313858,76.78 125.59,76.78 C125.866142,76.78 126.09,77.0038576 126.09,77.28 L126.09,90.86 C126.09,91.1361424 125.866142,91.36 125.59,91.36 Z" id="Path" fill="#040406"></path>
            <path d="M103.27,84.57 L54.82,84.57 C54.5438576,84.57 54.32,84.3461424 54.32,84.07 C54.32,83.7938576 54.5438576,83.57 54.82,83.57 L103.26,83.57 C103.536142,83.57 103.76,83.7938576 103.76,84.07 C103.76,84.3461424 103.536142,84.57 103.26,84.57 L103.27,84.57 Z" id="Path" fill="#040406"></path>
            <path d="M119,99.91 L31.07,99.91 C30.7938576,99.91 30.57,99.6861424 30.57,99.41 C30.57,99.1338576 30.7938576,98.91 31.07,98.91 L119,98.91 C119.276142,98.91 119.5,99.1338576 119.5,99.41 C119.5,99.6861424 119.276142,99.91 119,99.91 Z" id="Path" fill="#040406"></path>
            <path d="M158.13,12.7 C158.113515,6.46602333 153.063977,1.41648482 146.83,1.4 L63.17,1.4 C56.9360233,1.41648482 51.8864848,6.46602333 51.87,12.7 L51.87,107.9 L158.13,107.9 L158.13,12.7 Z" id="Path" fill="#FFFFFF"></path>
            <path d="M158.63,108.4 L51.38,108.4 L51.38,12.7 C51.3855139,6.18532525 56.6653253,0.905513905 63.18,0.9 L146.84,0.9 C153.354675,0.905513905 158.634486,6.18532525 158.64,12.7 L158.63,108.4 Z M52.38,107.4 L157.63,107.4 L157.63,12.7 C157.624487,6.73760979 152.79239,1.90551308 146.83,1.9 L63.17,1.9 C57.2076098,1.90551308 52.3755131,6.73760979 52.37,12.7 L52.38,107.4 Z" id="Shape" fill="#040406"></path>
            <path d="M116.51,16.67 L93.51,16.67 C93.2338576,16.67 93.01,16.4461424 93.01,16.17 C93.01,15.8938576 93.2338576,15.67 93.51,15.67 L116.51,15.67 C116.786142,15.67 117.01,15.8938576 117.01,16.17 C117.01,16.4461424 116.786142,16.67 116.51,16.67 Z" id="Path" fill="#040406"></path>
            <rect id="Rectangle" fill="#F2F2F3" x="60" y="30.93" width="90" height="76.93"></rect>
            <path d="M150,108.37 L60,108.37 C59.7238576,108.37 59.5,108.146142 59.5,107.87 L59.5,30.93 C59.5,30.6538576 59.7238576,30.43 60,30.43 L150,30.43 C150.276142,30.43 150.5001,30.6538576 150.5001,30.93 L150.5001,107.86 C150.502687,107.994332 150.451197,108.124093 150.357136,108.220036 C150.263075,108.315978 150.134359,108.37 150,108.37 Z M60.5,107.37 L149.5,107.37 L149.5,31.43 L60.5,31.43 L60.5,107.37 Z" id="Shape" fill="#040406"></path>
            <rect id="Rectangle" fill="#E0E0E0" x="60" y="30.93" width="90" height="8.21"></rect>
            <path d="M150,108.37 L60,108.37 C59.7238576,108.37 59.5,108.146142 59.5,107.87 L59.5,30.93 C59.5,30.6538576 59.7238576,30.43 60,30.43 L150,30.43 C150.276142,30.43 150.5001,30.6538576 150.5001,30.93 L150.5001,107.86 C150.502687,107.994332 150.451197,108.124093 150.357136,108.220036 C150.263075,108.315978 150.134359,108.37 150,108.37 Z M60.5,107.37 L149.5,107.37 L149.5,31.43 L60.5,31.43 L60.5,107.37 Z" id="Shape" fill="#040406"></path>
            <path d="M209.5,108.46 L0.5,108.46 C0.223857625,108.46 0,108.236142 0,107.96 C0,107.683858 0.223857625,107.46 0.5,107.46 L209.5,107.46 C209.776142,107.46 210,107.683858 210,107.96 C210,108.236142 209.776142,108.46 209.5,108.46 Z" id="Path" fill="#040406"></path>
            <circle id="Oval" fill="#F05253" cx="105.5" cy="72.54" r="20.5"></circle>
            <path d="M105.5,94 C93.6258779,94 84,84.3741221 84,72.5 C84,60.6258779 93.6258779,51 105.5,51 C117.374122,51 127,60.6258779 127,72.5 C126.986094,84.3683575 117.368357,93.9860945 105.5,94 Z M105.5,53 C94.7304474,53 86,61.7304474 86,72.5 C86,83.2695526 94.7304474,92 105.5,92 C116.269553,92 125,83.2695526 125,72.5 C124.985715,61.7363699 116.26363,53.0142849 105.5,53 Z" id="Shape" fill="#1B3649"></path>
            <circle id="Oval" fill="#FFFFFF" cx="105.5" cy="83.54" r="2.5"></circle>
            <path d="M108,63.6635019 C108,62.2145818 106.880712,61.04 105.5,61.04 C104.119288,61.04 103,62.2145818 103,63.6635019 L103.837321,76.4923007 C103.938447,77.3754191 104.6524,78.04 105.5,78.04 C106.3476,78.04 107.061553,77.3754191 107.162679,76.4923007 L108,63.6635019 Z" id="Path" fill="#FFFFFF"></path>
        </g>
    </g>
</svg>