<svg id="Layer_1" data-name="Layer 1" xmlns="http://www.w3.org/2000/svg" viewBox="0 0 185 95.26"><defs><style>.cls-1,.cls-4,.cls-5,.cls-8,.cls-9{fill:none;}.cls-1{stroke:#e0e0e0;}.cls-1,.cls-5,.cls-9{stroke-linecap:round;}.cls-1,.cls-6,.cls-8,.cls-9{stroke-linejoin:round;}.cls-2{fill:#152935;}.cls-3{fill:#fff;}.cls-3,.cls-4,.cls-5,.cls-6,.cls-8,.cls-9{stroke:#1b3649;}.cls-3,.cls-4,.cls-5{stroke-miterlimit:10;}.cls-6{fill:#f2f2f3;}.cls-7{fill:#e0e0e0;}</style></defs><title>Artboard 111</title><line class="cls-1" x1="162.15" y1="87.65" x2="106.8" y2="87.65"/><line class="cls-1" x1="162.15" y1="84.62" x2="106.8" y2="84.62"/><line class="cls-1" x1="162.15" y1="81.58" x2="106.8" y2="81.58"/><line class="cls-1" x1="162.15" y1="78.55" x2="106.8" y2="78.55"/><line class="cls-1" x1="162.15" y1="75.51" x2="106.8" y2="75.51"/><path class="cls-1" d="M108.58,68.46h58v4.23h-58a8.89,8.89,0,1,0,0,17.78h58v4.23h-58a13.12,13.12,0,1,1,0-26.25Z"/><line class="cls-1" x1="164.65" y1="90.47" x2="164.65" y2="72.69"/><path class="cls-1" d="M37.73,49.76H77a0,0,0,0,1,0,0v40a5,5,0,0,1-5,5H42.73a5,5,0,0,1-5-5v-40A0,0,0,0,1,37.73,49.76Z"/><line class="cls-1" x1="37.9" y1="91.06" x2="76.82" y2="91.06"/><path class="cls-1" d="M37.73,76.9A7.86,7.86,0,0,1,29.87,69V64.75a3,3,0,0,1,3-3h4.86"/><path class="cls-1" d="M37.73,56.76H32.86a8,8,0,0,0-8,8V69A12.87,12.87,0,0,0,37.72,81.9"/><rect class="cls-2" x="72.58" y="14.57" width="39.83" height="69.97" rx="1" ry="1"/><rect class="cls-3" x="68.99" y="0.5" width="47.03" height="94.26" rx="5" ry="5"/><circle class="cls-4" cx="92.5" cy="88.21" r="3.85"/><line class="cls-5" x1="87.41" y1="7.03" x2="97.59" y2="7.03"/><rect class="cls-6" x="72.58" y="13.57" width="39.83" height="68.1"/><rect class="cls-7" x="72.58" y="13.57" width="39.83" height="3.63"/><rect class="cls-8" x="72.58" y="13.57" width="39.83" height="68.1"/><line class="cls-9" y1="94.76" x2="185" y2="94.76"/></svg>