<svg id="Layer_1" data-name="Layer 1" xmlns="http://www.w3.org/2000/svg" viewBox="0 0 315 127.35"><defs><style>.cls-1,.cls-13,.cls-4,.cls-6,.cls-9{fill:none;}.cls-1{stroke:#e0e0e0;}.cls-1,.cls-13,.cls-9{stroke-linecap:round;}.cls-1,.cls-10,.cls-13,.cls-2,.cls-6{stroke-linejoin:round;}.cls-12,.cls-2,.cls-8{fill:#fff;}.cls-10,.cls-13,.cls-2,.cls-4,.cls-6,.cls-8,.cls-9{stroke:#1b3649;}.cls-10,.cls-3{fill:#f2f2f3;}.cls-4,.cls-8,.cls-9{stroke-miterlimit:10;}.cls-5{fill:#e0e0e0;}.cls-7{fill:#152935;}.cls-11{fill:#4378bd;}</style></defs><title>Artboard 106</title><line class="cls-1" x1="17" y1="108.77" x2="69.14" y2="108.77"/><line class="cls-1" x1="17" y1="111.63" x2="69.14" y2="111.63"/><line class="cls-1" x1="17" y1="114.49" x2="69.14" y2="114.49"/><line class="cls-1" x1="17" y1="117.35" x2="69.14" y2="117.35"/><line class="cls-1" x1="17" y1="120.2" x2="69.14" y2="120.2"/><path class="cls-1" d="M67.46,126.85H12.83v-4H67.46a8.38,8.38,0,1,0,0-16.75H12.83v-4H67.46a12.36,12.36,0,0,1,0,24.73Z"/><line class="cls-1" x1="14.64" y1="106.11" x2="14.64" y2="122.86"/><path class="cls-1" d="M33.89,59.73h37a0,0,0,0,1,0,0V97.12a5,5,0,0,1-5,5h-27a5,5,0,0,1-5-5V59.73A0,0,0,0,1,33.89,59.73Z"/><line class="cls-1" x1="34.05" y1="98.63" x2="70.72" y2="98.63"/><path class="cls-1" d="M33.89,85.29a7.41,7.41,0,0,1-7.4-7.4v-4A2.82,2.82,0,0,1,29.31,71h4.58"/><path class="cls-1" d="M33.89,66.32H29.31a7.54,7.54,0,0,0-7.53,7.53v4A12.12,12.12,0,0,0,33.88,90"/><path class="cls-1" d="M260.38,69.43c3.28-9.08,6.79-17.37,8.88-19.68,5-5.59,12.5-7.25,12.5-7.25-.79,3.24-4.62,16.2-8.66,28.79"/><path class="cls-1" d="M261.29,77.18c-1.38-13-4.13-30.7-6.8-35-4.07-6.65-13.08-12.43-13.08-12.43,2,4.58,4.67,18.72,6.84,32.21"/><path class="cls-1" d="M240.54,71.91c1,4.51,1.81,8.78,2.36,12.32"/><path class="cls-1" d="M251.92,74.19c-3-11.7-7.7-25.2-13.61-29.66-9.86-7.43-8.15-4.72-8.15-4.72C233.28,45,236.48,55.15,239,65.3"/><path class="cls-1" d="M257,84.23c-2.15-6-8.32-16.44-12.73-17.76a40.46,40.46,0,0,0-10.39-1.61c4.47,3.64,12,13.36,14.28,19.36"/><path class="cls-1" d="M275.21,71.16l-10.14.62a98.24,98.24,0,0,0-8,12.43"/><path class="cls-1" d="M268.93,84.22c.86-2.24,1.81-4.63,2.77-6.8"/><path class="cls-1" d="M265.07,71.78c2.93,3.69,13.22,9.69,15.69,13.12s4.18,5.64,4.18,5.64.43-8.54-2.36-12.4a34.57,34.57,0,0,0-7.37-7Z"/><path class="cls-1" d="M271.73,84.22h-31c-3.34,2.42-5.74,6-5.74,9.88l-1.1,19.58a13.21,13.21,0,0,0,13.18,13.18h18.3a13.21,13.21,0,0,0,13.18-13.18l-1.1-19.58C277.47,90.17,275.07,86.63,271.73,84.22Z"/><path class="cls-2" d="M176.29,116.61h60V21.09a4.72,4.72,0,0,0-4.71-4.71H88.4A4.6,4.6,0,0,0,83.82,21v95.64h60"/><path class="cls-3" d="M143.79,116.61v1.77a2.29,2.29,0,0,0,2.29,2.29H174a2.29,2.29,0,0,0,2.29-2.29v-1.77H230.1v-83A4.59,4.59,0,0,0,225.51,29H93.74a4.59,4.59,0,0,0-4.59,4.59v83h54.64Z"/><circle class="cls-4" cx="160.04" cy="23.35" r="2.31"/><rect class="cls-5" x="89.15" y="29" width="140.95" height="3.42"/><path class="cls-6" d="M176.29,116.61H230.1V28.69H89.15v87.92h54.64"/><path class="cls-2" d="M176.29,116.61v1.77a2.29,2.29,0,0,1-2.29,2.29H146.08a2.29,2.29,0,0,1-2.29-2.29v-1.77H72.57v10.24H247.51V116.61Z"/><rect class="cls-7" x="66.76" y="51.31" width="37.52" height="65.92" rx="1" ry="1"/><rect class="cls-8" x="63.37" y="38.05" width="44.3" height="88.8" rx="5" ry="5"/><circle class="cls-4" cx="85.52" cy="120.68" r="3.63"/><line class="cls-9" x1="80.73" y1="44.21" x2="90.32" y2="44.21"/><rect class="cls-10" x="66.76" y="50.36" width="37.52" height="64.15"/><rect class="cls-5" x="66.76" y="50.36" width="37.52" height="3.42"/><rect class="cls-6" x="66.76" y="50.36" width="37.52" height="64.15"/><path class="cls-11" d="M233,44.68a22.09,22.09,0,1,1,22.09-22.09A22.11,22.11,0,0,1,233,44.68Z"/><path class="cls-4" d="M247,39.61a22,22,0,1,1,6.69-9.45"/><path class="cls-12" d="M243.24,16a1.89,1.89,0,0,0-2.66,0l-11,11-4.18-4.18a1.88,1.88,0,0,0-2.66,2.66L228.22,31a1.88,1.88,0,0,0,2.66,0l12.36-12.36A1.89,1.89,0,0,0,243.24,16Z"/><circle class="cls-4" cx="248.26" cy="38.49" r="1.66"/><path class="cls-4" d="M243.24,16a1.89,1.89,0,0,0-2.66,0l-11,11-4.18-4.18a1.88,1.88,0,0,0-2.66,2.66L228.22,31a1.88,1.88,0,0,0,2.66,0l12.36-12.36A1.89,1.89,0,0,0,243.24,16Z"/><line class="cls-13" y1="126.85" x2="315" y2="126.85"/></svg>