<svg id="Layer_1" data-name="Layer 1" xmlns="http://www.w3.org/2000/svg" viewBox="0 0 186 72.86"><defs><style>.cls-1{fill:#e0e0e0;}.cls-2{fill:#1b3649;}.cls-3{fill:#fff;}</style></defs><title>Artboard 162</title><path class="cls-1" d="M75.5,72.86H46.23a5.51,5.51,0,0,1-5.5-5.5v-40a.5.5,0,0,1,.5-.5H80.5a.5.5,0,0,1,.5.5v40A5.51,5.51,0,0,1,75.5,72.86Zm-33.77-45v39.5a4.5,4.5,0,0,0,4.5,4.5H75.5a4.5,4.5,0,0,0,4.5-4.5V27.86Z"/><path class="cls-1" d="M80.32,69.16H41.4a.5.5,0,0,1,0-1H80.32a.5.5,0,0,1,0,1Z"/><path class="cls-1" d="M41.23,55a8.36,8.36,0,0,1-8.36-8.35V42.35a3.5,3.5,0,0,1,3.49-3.49h4.86a.5.5,0,0,1,0,1H36.37a2.5,2.5,0,0,0-2.49,2.49v4.29A7.36,7.36,0,0,0,41.23,54a.5.5,0,0,1,0,1Z"/><path class="cls-1" d="M41.23,60A13.37,13.37,0,0,1,27.88,46.64V42.35a8.5,8.5,0,0,1,8.49-8.49h4.86a.5.5,0,0,1,0,1H36.37a7.5,7.5,0,0,0-7.49,7.49v4.29A12.37,12.37,0,0,0,41.23,59a.5.5,0,0,1,0,1Z"/><path class="cls-1" d="M160.93,65.8H105.58a.5.5,0,0,1,0-1h55.35a.5.5,0,0,1,0,1Z"/><path class="cls-1" d="M160.93,62.77H105.58a.5.5,0,1,1,0-1h55.35a.5.5,0,0,1,0,1Z"/><path class="cls-1" d="M160.93,59.73H105.58a.5.5,0,0,1,0-1h55.35a.5.5,0,0,1,0,1Z"/><path class="cls-1" d="M160.93,56.7H105.58a.5.5,0,1,1,0-1h55.35a.5.5,0,0,1,0,1Z"/><path class="cls-1" d="M160.93,53.67H105.58a.5.5,0,0,1,0-1h55.35a.5.5,0,0,1,0,1Z"/><path class="cls-1" d="M165.35,72.86h-58a13.63,13.63,0,1,1,0-27.25h58a.5.5,0,0,1,.5.5v4.23a.5.5,0,0,1-.5.5h-58a8.39,8.39,0,0,0,0,16.78h58a.5.5,0,0,1,.5.5v4.23A.5.5,0,0,1,165.35,72.86Zm-58-26.25a12.62,12.62,0,1,0,0,25.25h57.49V68.63H107.36a9.39,9.39,0,0,1,0-18.78h57.49V46.61Z"/><path class="cls-1" d="M163.43,68.63a.5.5,0,0,1-.5-.5V50.34a.5.5,0,0,1,1,0V68.13A.5.5,0,0,1,163.43,68.63Z"/><path class="cls-2" d="M185.5,72.86H.5a.5.5,0,0,1,0-1h185a.5.5,0,0,1,0,1Z"/><rect class="cls-3" x="80.8" y="0.5" width="18.85" height="55.67" rx="1.73" ry="1.73"/><path class="cls-2" d="M97.93,56.67H82.53a2.23,2.23,0,0,1-2.23-2.23V2.23A2.23,2.23,0,0,1,82.53,0H97.93a2.23,2.23,0,0,1,2.23,2.23V54.44A2.23,2.23,0,0,1,97.93,56.67ZM82.53,1A1.23,1.23,0,0,0,81.3,2.23V54.44a1.23,1.23,0,0,0,1.23,1.23H97.93a1.23,1.23,0,0,0,1.23-1.23V2.23A1.23,1.23,0,0,0,97.93,1Z"/><path class="cls-3" d="M102.11,16.69H78.35a2.11,2.11,0,0,0-2.11,2.11V70.25a2.11,2.11,0,0,0,2.11,2.11h23.76a2.11,2.11,0,0,0,2.11-2.11V18.79A2.11,2.11,0,0,0,102.11,16.69ZM90.23,66.81a3.58,3.58,0,1,1,3.58-3.58A3.58,3.58,0,0,1,90.23,66.81Z"/><path class="cls-2" d="M102.11,72.86H78.35a2.61,2.61,0,0,1-2.61-2.61V18.79a2.61,2.61,0,0,1,2.61-2.61h23.76a2.61,2.61,0,0,1,2.61,2.61V70.25A2.61,2.61,0,0,1,102.11,72.86ZM78.35,17.19a1.61,1.61,0,0,0-1.61,1.61V70.25a1.61,1.61,0,0,0,1.61,1.61h23.76a1.61,1.61,0,0,0,1.61-1.61V18.79a1.61,1.61,0,0,0-1.61-1.61ZM90.23,67.31a4.08,4.08,0,1,1,4.08-4.08A4.09,4.09,0,0,1,90.23,67.31Zm0-7.17a3.08,3.08,0,1,0,3.08,3.08A3.09,3.09,0,0,0,90.23,60.15Z"/><circle class="cls-1" cx="90.23" cy="40.74" r="8.02"/><path class="cls-2" d="M90.23,49.26a8.52,8.52,0,1,1,8.52-8.52A8.53,8.53,0,0,1,90.23,49.26Zm0-16a7.52,7.52,0,1,0,7.52,7.52A7.53,7.53,0,0,0,90.23,33.21Z"/><circle class="cls-2" cx="90.23" cy="40.74" r="1.52"/><rect class="cls-1" x="82.33" y="3.3" width="3.07" height="13.39"/><rect class="cls-1" x="86.57" y="5.23" width="3.07" height="11.46"/><rect class="cls-1" x="90.81" y="5.23" width="3.07" height="11.46"/><rect class="cls-1" x="95.06" y="3.3" width="3.07" height="13.39"/><path class="cls-2" d="M102.11,72.86H78.35a2.61,2.61,0,0,1-2.61-2.61V18.79a2.61,2.61,0,0,1,2.61-2.61h23.76a2.61,2.61,0,0,1,2.61,2.61V70.25A2.61,2.61,0,0,1,102.11,72.86ZM78.35,17.19a1.61,1.61,0,0,0-1.61,1.61V70.25a1.61,1.61,0,0,0,1.61,1.61h23.76a1.61,1.61,0,0,0,1.61-1.61V18.79a1.61,1.61,0,0,0-1.61-1.61Z"/></svg>