<svg id="Layer_1" data-name="Layer 1" xmlns="http://www.w3.org/2000/svg" viewBox="0 0 72.86 28.98"><defs><style>.cls-1{fill:#fff;}.cls-2{fill:#1b3649;}.cls-3{fill:#f05253;}.cls-4{fill:#e0e0e0;}</style></defs><title>Artboard 170</title><rect class="cls-1" x="35.1" y="-13.35" width="18.85" height="55.67" rx="1.73" ry="1.73" transform="translate(59.01 -30.03) rotate(90)"/><path class="cls-2" d="M70.63,24.41H18.42a2.23,2.23,0,0,1-2.23-2.23V6.79a2.23,2.23,0,0,1,2.23-2.23H70.63a2.23,2.23,0,0,1,2.23,2.23V22.18A2.23,2.23,0,0,1,70.63,24.41ZM18.42,5.56a1.23,1.23,0,0,0-1.23,1.23V22.18a1.23,1.23,0,0,0,1.23,1.23H70.63a1.23,1.23,0,0,0,1.23-1.23V6.79a1.23,1.23,0,0,0-1.23-1.23Z"/><path class="cls-1" d="M56.17,26.37V2.61A2.11,2.11,0,0,0,54.07.5H2.61A2.11,2.11,0,0,0,.5,2.61V26.37a2.11,2.11,0,0,0,2.11,2.11H54.07A2.11,2.11,0,0,0,56.17,26.37ZM6,14.49a3.58,3.58,0,1,1,3.58,3.58A3.58,3.58,0,0,1,6,14.49Z"/><path class="cls-2" d="M54.07,29H2.61A2.61,2.61,0,0,1,0,26.37V2.61A2.61,2.61,0,0,1,2.61,0H54.07a2.61,2.61,0,0,1,2.61,2.61V26.37A2.61,2.61,0,0,1,54.07,29ZM2.61,1A1.61,1.61,0,0,0,1,2.61V26.37A1.61,1.61,0,0,0,2.61,28H54.07a1.61,1.61,0,0,0,1.61-1.61V2.61A1.61,1.61,0,0,0,54.07,1Zm7,17.57a4.08,4.08,0,1,1,4.08-4.08A4.09,4.09,0,0,1,9.63,18.57Zm0-7.17a3.08,3.08,0,1,0,3.08,3.08A3.09,3.09,0,0,0,9.63,11.41Z"/><circle class="cls-3" cx="32.12" cy="14.49" r="8.02"/><path class="cls-2" d="M32.12,23a8.52,8.52,0,1,1,8.52-8.52A8.53,8.53,0,0,1,32.12,23Zm0-16a7.52,7.52,0,1,0,7.52,7.52A7.53,7.53,0,0,0,32.12,7Z"/><circle class="cls-1" cx="32.12" cy="18.78" r="0.86"/><path class="cls-1" d="M33.17,11a1,1,0,1,0-2.09,0l.35,5.11a.7.7,0,0,0,1.39,0Z"/><rect class="cls-4" x="61.33" y="1.43" width="3.07" height="13.39" transform="translate(70.99 -54.75) rotate(90)"/><rect class="cls-4" x="60.37" y="6.63" width="3.07" height="11.46" transform="translate(74.27 -49.54) rotate(90)"/><rect class="cls-4" x="60.37" y="10.88" width="3.07" height="11.46" transform="translate(78.51 -45.29) rotate(90)"/><rect class="cls-4" x="61.33" y="14.16" width="3.07" height="13.39" transform="translate(83.72 -42.02) rotate(90)"/><path class="cls-2" d="M54.07,29H2.61A2.61,2.61,0,0,1,0,26.37V2.61A2.61,2.61,0,0,1,2.61,0H54.07a2.61,2.61,0,0,1,2.61,2.61V26.37A2.61,2.61,0,0,1,54.07,29ZM2.61,1A1.61,1.61,0,0,0,1,2.61V26.37A1.61,1.61,0,0,0,2.61,28H54.07a1.61,1.61,0,0,0,1.61-1.61V2.61A1.61,1.61,0,0,0,54.07,1Z"/></svg>