<svg id="Layer_1" data-name="Layer 1" xmlns="http://www.w3.org/2000/svg" viewBox="0 0 210 136.8"><defs><style>.cls-1{fill:#040406;}.cls-2{fill:#fff;}.cls-3{fill:#f2f2f3;}.cls-4{fill:#e0e0e0;}.cls-5{fill:#f05253;}.cls-6{fill:#f05354;}.cls-7{fill:#4378bd;}</style></defs><title>Artboard 175</title><path class="cls-1" d="M186.56,68.76l-.15,0a.5.5,0,0,1-.32-.63c4.32-13.44,8.22-26.65,9.4-31.11-2.19.63-8.4,2.78-12.81,7.68-2,2.23-5.66,10.34-9.75,21.68A.5.5,0,1,1,172,66c2-5.5,6.93-18.66,10-22,5.63-6.25,13.79-8.12,14.14-8.2a.5.5,0,0,1,.59.6c-.83,3.41-5,17.58-9.63,32A.5.5,0,0,1,186.56,68.76Z"/><path class="cls-1" d="M173.46,75.29a.5.5,0,0,1-.49-.45c-1.63-15.43-4.67-34.11-7.48-38.69-3.44-5.62-10.21-10.75-13.05-12.75,2.46,7.1,5.42,24.27,7,34.36a.5.5,0,1,1-1,.16c-3-18.75-5.69-31.41-7.55-35.63a.5.5,0,0,1,.73-.62c.41.27,10.14,6.57,14.67,14,2.88,4.71,6,23.57,7.62,39.1a.5.5,0,0,1-.44.55Z"/><path class="cls-1" d="M153.05,83.12a.5.5,0,0,1-.49-.42c-.63-4-1.54-8.74-2.62-13.65a.5.5,0,1,1,1-.21c1.08,4.93,2,9.67,2.63,13.7a.5.5,0,0,1-.41.57Z"/><path class="cls-1" d="M163.06,72a.5.5,0,0,1-.48-.38c-2.5-9.88-7.77-27.26-14.93-32.65-5.06-3.81-7.19-5.07-8.07-5.48,4.06,7,7.76,20.5,9.62,28a.5.5,0,1,1-1,.24c-1.89-7.62-5.67-21.41-9.75-28.15a.84.84,0,0,1,0-1.11c.42-.39,1-.92,9.76,5.69,7.4,5.58,12.76,23.19,15.29,33.2a.5.5,0,0,1-.36.6Z"/><path class="cls-1" d="M168.75,83.12a.5.5,0,0,1-.47-.33c-2.44-6.81-9.2-18-13.81-19.4a45.39,45.39,0,0,0-10-1.71c5.13,4.67,12.57,14.5,14.92,20.76a.5.5,0,0,1-.93.35c-2.42-6.47-10.79-17.29-15.69-21.28a.5.5,0,0,1,.31-.88h0a45.94,45.94,0,0,1,11.68,1.81c5.35,1.6,12.26,13.88,14.46,20a.5.5,0,0,1-.3.64Z"/><path class="cls-1" d="M168.81,83.1a.5.5,0,0,1-.44-.73,109.21,109.21,0,0,1,8.89-13.86.5.5,0,0,1,.37-.2l11.25-.69a.48.48,0,0,1,.53.47.5.5,0,0,1-.47.53l-11,.68a107.76,107.76,0,0,0-8.67,13.54A.5.5,0,0,1,168.81,83.1Z"/><path class="cls-1" d="M181.94,83.1a.5.5,0,0,1-.46-.68c.91-2.36,2-5.11,3.09-7.57a.5.5,0,0,1,.91.4c-1.09,2.44-2.16,5.18-3.07,7.53A.5.5,0,0,1,181.94,83.1Z"/><path class="cls-1" d="M199.71,90.13a.5.5,0,0,1-.39-.19s-1.94-2.51-4.65-6.28c-1.34-1.87-5-4.56-8.55-7.17s-7.2-5.3-8.85-7.37a.5.5,0,0,1,.36-.81l11.25-.69a.46.46,0,0,1,.31.09,38.43,38.43,0,0,1,8.31,7.88c3.16,4.37,2.73,13.68,2.71,14.08a.5.5,0,0,1-.35.45Zm-21-20.89a69.91,69.91,0,0,0,8,6.45c3.77,2.78,7.34,5.4,8.77,7.39,1.62,2.25,2.95,4,3.76,5.11,0-2.77-.29-8.9-2.55-12a37.71,37.71,0,0,0-7.92-7.55Z"/><path class="cls-1" d="M178,130.43H157.7a15.14,15.14,0,0,1-15.12-15.12l1.22-21.76c0-4.17,2.4-8.32,6.58-11.34a.5.5,0,0,1,.29-.09H185a.5.5,0,0,1,.29.09c4.18,3,6.58,7.17,6.58,11.37l1.22,21.71A15.14,15.14,0,0,1,178,130.43ZM150.83,83.1c-3.84,2.83-6,6.64-6,10.47l-1.22,21.76a14.14,14.14,0,0,0,14.13,14.1H178a14.14,14.14,0,0,0,14.13-14.13L190.92,93.6c0-3.86-2.2-7.67-6-10.5Z"/><path class="cls-1" d="M85.8,122.39H23.26a.5.5,0,1,1,0-1H85.8a.5.5,0,1,1,0,1Z"/><path class="cls-1" d="M85.8,119H23.26a.5.5,0,1,1,0-1H85.8a.5.5,0,1,1,0,1Z"/><path class="cls-1" d="M85.8,115.54H23.26a.5.5,0,0,1,0-1H85.8a.5.5,0,0,1,0,1Z"/><path class="cls-1" d="M85.8,112.11H23.26a.5.5,0,1,1,0-1H85.8a.5.5,0,1,1,0,1Z"/><path class="cls-1" d="M85.8,108.68H23.26a.5.5,0,0,1,0-1H85.8a.5.5,0,0,1,0,1Z"/><path class="cls-1" d="M90.79,130.37H25.28a15.33,15.33,0,1,1,0-30.65H90.79a.5.5,0,0,1,.5.5V105a.5.5,0,0,1-.5.5H25.28a9.55,9.55,0,1,0,0,19.09H90.79a.5.5,0,0,1,.5.5v4.78A.5.5,0,0,1,90.79,130.37ZM25.28,100.71a14.33,14.33,0,1,0,0,28.66h65v-3.79h-65a10.54,10.54,0,1,1,0-21.08h65v-3.79Z"/><path class="cls-1" d="M88.62,125.58a.5.5,0,0,1-.5-.5V105a.5.5,0,0,1,1,0v20.09A.5.5,0,0,1,88.62,125.58Z"/><path class="cls-2" d="M158.13,34.67a11.33,11.33,0,0,0-11.3-11.3H63.17a11.33,11.33,0,0,0-11.3,11.3v95.2H158.13Z"/><path class="cls-1" d="M158.63,130.37H51.38V34.67a11.81,11.81,0,0,1,11.8-11.8h83.66a11.81,11.81,0,0,1,11.8,11.8Zm-106.25-1H157.63V34.67a10.81,10.81,0,0,0-10.8-10.8H63.17a10.81,10.81,0,0,0-10.8,10.8Z"/><path class="cls-1" d="M116.51,38.64h-23a.5.5,0,0,1,0-1h23a.5.5,0,1,1,0,1Z"/><rect class="cls-3" x="60" y="52.9" width="90" height="76.93"/><path class="cls-1" d="M150,130.34H60a.5.5,0,0,1-.5-.5V52.9a.5.5,0,0,1,.5-.5h90a.5.5,0,0,1,.5.5v76.93A.5.5,0,0,1,150,130.34Zm-89.5-1h89V53.4h-89Z"/><rect class="cls-4" x="60" y="52.9" width="90" height="8.21"/><path class="cls-1" d="M150,130.34H60a.5.5,0,0,1-.5-.5V52.9a.5.5,0,0,1,.5-.5h90a.5.5,0,0,1,.5.5v76.93A.5.5,0,0,1,150,130.34Zm-89.5-1h89V53.4h-89Z"/><path class="cls-1" d="M209.51,130.43H.5a.5.5,0,1,1,0-1h209a.5.5,0,1,1,0,1Z"/><circle class="cls-5" cx="86.37" cy="93.99" r="12.63"/><path class="cls-6" d="M86.37,107.11A13.12,13.12,0,1,1,99.49,94,13.14,13.14,0,0,1,86.37,107.11Zm0-25.25A12.13,12.13,0,1,0,98.49,94,12.14,12.14,0,0,0,86.37,81.86Z"/><circle class="cls-7" cx="124.77" cy="93.99" r="12.63"/><path class="cls-7" d="M124.77,107.11A13.12,13.12,0,1,1,137.89,94,13.14,13.14,0,0,1,124.77,107.11Zm0-25.25A12.13,12.13,0,1,0,136.9,94,12.14,12.14,0,0,0,124.77,81.86Z"/><path class="cls-2" d="M81.65,99.2a.5.5,0,0,1-.35-.85l9.43-9.43a.5.5,0,1,1,.7.7L82,99.05A.5.5,0,0,1,81.65,99.2Z"/><path class="cls-2" d="M91.08,99.2a.5.5,0,0,1-.35-.15L81.3,89.62a.5.5,0,1,1,.7-.7l9.43,9.43a.5.5,0,0,1-.35.85Z"/><path class="cls-2" d="M123.38,98.07a.5.5,0,0,1-.35-.15L119.6,94.5a.5.5,0,0,1,.7-.7l3.07,3.07L130.21,90a.5.5,0,0,1,.7.7l-7.18,7.18A.5.5,0,0,1,123.38,98.07Z"/></svg>