<svg width="464" height="190" xmlns="http://www.w3.org/2000/svg" xmlns:xlink="http://www.w3.org/1999/xlink"><defs><path d="M154 10.0008664C154 12.2083604 152.209705 14 150 14s-4-1.7916396-4-3.9991336C146 7.79163959 147.790295 6 150 6s4 1.79163959 4 4.0008664z" id="a"/><filter x="-12.5%" y="-12.5%" width="125%" height="125%" filterUnits="objectBoundingBox" id="b"><feGaussianBlur stdDeviation=".5" in="SourceAlpha" result="shadowBlurInner1"/><feOffset dy="1" in="shadowBlurInner1" result="shadowOffsetInner1"/><feComposite in="shadowOffsetInner1" in2="SourceAlpha" operator="arithmetic" k2="-1" k3="1" result="shadowInnerInner1"/><feColorMatrix values="0 0 0 0 0.549019635 0 0 0 0 0.549019635 0 0 0 0 0.549019635 0 0 0 1 0" in="shadowInnerInner1"/></filter><circle id="c" cx="50" cy="50" r="41"/></defs><g fill="none" fill-rule="evenodd"><path d="M125.5 78.5h-63v63.008032c0 5.3830751 2.6576746 7.991968 8.1507529 7.991968h46.6984942c4.5039729 0 8.1507529-3.5803378 8.1507529-7.991968V78.5zM62.5 120.4401862c-4.3291327-.1312389-7.5684496-1.9874233-9.9248013-5.7831639-2.1562434-3.4733952-2.6886735-8.8605028-1.9576302-13.929821.5471704-3.7942771 1.9998814-5.1472845 5.0233949-5.1472845H62.5v-7.0785381l-6.865773-.0000423c-4.1102102-.0553814-7.3291174 1.608658-9.7076224 5.0199599-4.0206208 5.7664591-3.0748287 21.4111348 2.6082604 27.3224924 4.0263258 4.1880483 8.6740859 6.3955254 13.965135 6.6389707v-7.0425732z" stroke="#BEBEBE" fill="#DCDCDC"/><path fill="#FFF" fill-rule="nonzero" d="M30 154h80v30H30z"/><path stroke="#BEBEBE" fill="#FFF" fill-rule="nonzero" d="M24.5 182.5h85v7h-85zM24.5 148.5h85v7h-85z"/><path fill="#BEBEBE" fill-rule="nonzero" d="M39 175h77v1H39zM39 169h77v1H39zM39 163h77v1H39zM30 155h1v28h-1z"/><g stroke="#BEBEBE"><path d="M396.3258547 99.3342116l-6.6439011 23.7520694 10.1355776 2.3509965 16.5196181-23.2076089c5.8418545-19.3521462 12.2559296-42.1068293 14.0434547-49.5272915-.1198492.0349001-.2459591.0724787-.3781085.1127888-.9442905.2880414-1.9977661.6538824-3.1330012 1.1040547-3.2450572 1.2868129-6.4902612 2.9894439-9.5166561 5.158865-2.4316093 1.7430589-4.6191916 3.7198138-6.5033819 5.944227-3.1201942 3.6818359-8.5781835 16.7896662-14.5236016 34.311899z" fill="#DCDCDC"/><path d="M399.4800779 111.6971042c-2.8894665-27.399137-7.5897064-53.509569-11.534875-59.9981149-1.6041824-2.6383113-3.472205-5.0626679-5.5517121-7.27851756-2.5450154-2.71187901-5.2723226-4.97768756-7.9986174-6.81593745-.8759977-.59065611-1.6938081-1.0971098-2.4355816-1.5212054 1.1834261 3.39933138 1.8897078 8.38179091 2.7196169 17.57049941.1299956 1.4393037.5887268 6.6919781.6194656 7.0395524.262569 2.9689522.4833454 5.3407086.7225548 7.7118395.6199815 6.1454836 1.3053918 11.6324092 2.1712032 17.070537l1.6823204 13.4469179 13.1505628 20.2467703 6.4550624-7.4723412z" fill="#DCDCDC"/><path d="M383.1839914 102.8387514c-6.3610587-24.4352897-14.419681-42.9849301-23.1297226-49.4875888-6.07040236-4.5317672-10.03458676-7.1866291-12.23112107-8.2974042-.54317037-.27467816-.95039875-.4389263-1.2161596-.51093664.00658174.01140703.01268103.02147193.01809627.03001677 4.96630916 8.12842257 10.4319125 24.15132407 15.3607343 43.81834787l21.1981774 14.4475832zm-36.85310263-58.33854266c-.00214997.00014163-.00426323.00030463-.00633976.00048894.0062296-.00055294.0123649-.00163872.01839452-.00319759zm.17374164-.19392123c-.00000927-.00093078-.00009248-.00174244-.00025116-.00242703.00047604.00205375.00098.00414227.00151144.00626429z" fill="#DCDCDC"/><path d="M393.2883742 119.4991835c-4.6226861-12.6121095-15.0380912-28.2564886-21.4542184-30.1992806-4.0503315-1.225766-8.2472817-2.0136547-12.3504845-2.4501877-1.4426323-.1534793-2.7723908-.2519103-3.95930832-.3062471-.04364659-.0019981-.08678285-.0039211-.12940451-.0057705 8.26398813 7.341885 19.96668923 23.316209 23.64313433 32.945143l14.2502814.0163429z" fill="#DCDCDC"/><path d="M421.2375821 98.8806365l-16.1227607.6777655c-5.0683884 7.4149931-9.4566442 14.7295113-12.3814842 20.7211348l18.1679869 3.5005385 10.336258-24.8994388z" fill="#BEBEBE"/><path d="M407.0050735 99.5285507c2.0243603 2.3411715 5.3582602 5.063922 12.1226191 10.1757998.1841683.1391641.1841683.1391641.3683922.2783321 8.8222402 6.6642965 11.880007 9.1970552 13.7277891 11.8357888 1.8413664 2.6288053 3.5740889 5.0452276 5.1465931 7.1947398.4093658.5595767.7858624 1.0709107 1.1268355 1.5311962.0464265-3.3717556-.1588288-7.2488107-.7927839-10.9577008-.6538255-3.8251399-1.6985669-6.9267419-3.1845905-9.038368-1.2303068-1.7473491-2.737673-3.5083473-4.4608734-5.2575458-1.7546359-1.7811085-3.6362265-3.4547472-5.51782-4.9708282-.6584383-.5305321-1.2695905-1.0032805-1.8176182-1.4120711-.2282384-.17025-.4105334-.303525-.5415369-.3977468l-16.1770061 1.018404z" fill="#DCDCDC"/><path d="M419.1955621 118.5h-52.3911242c-5.8779599 4.2675897-9.4337635 10.1256211-9.434556 16.2144234L355.5 167.751196c0 11.959386 9.8673991 21.748804 21.9260342 21.748804h31.1479316c12.0586351 0 21.9260342-9.789418 21.9268325-21.720561l-1.8714785-33.0932583c0-6.0607656-3.5557978-11.9185925-9.4337577-16.1861807z" fill="#FFF"/></g><g><path d="M363.5 182.5V4.26497665C363.5 1.71085696 362.147818.5 359.237237.5H104.662812c-2.7973332 0-4.121439 1.21113191-4.162812 3.76497665V182.5h263z" stroke="#171717" fill="#FFF"/><path fill="#F3F3F3" d="M260.379425 175H352V20H112v155h93.03895"/><path fill="#DCDCDC" d="M344.187868 28H352v-8H112v8h7.812132z"/><path fill="#171717" d="M352 180V20h-1v160zM113 180V20h-1v160z"/><path fill="#171717" d="M344.187868 21H352v-1H112v1h7.812132z"/><path d="M260.5 168.5v4.5c0 .175511.014711.997573.009208 1.177032-.012562.409645-.076429.677127-.271767.904031-.340025.394973-.573657.418937-2.237441.418937h-52c-1.582179 0-1.82959-.025978-2.177961-.408467-.32274-.354348-.304725-.080786-.322039-2.091533v-4.5h-121v21h299v-21h-121z" stroke="#171717" fill="#FFF"/><g transform="translate(82)"><use fill="#BEBEBE" xlink:href="#a"/><use fill="#000" filter="url(#b)" xlink:href="#a"/></g></g><path fill="#171717" fill-rule="nonzero" d="M0 189h464v1H0z"/><g><path d="M0 0h464v190H0z"/><g transform="translate(182 47)"><circle stroke="#BEBEBE" fill="#FFF" fill-rule="nonzero" cx="50" cy="50" r="49.5"/><mask id="d" fill="#fff"><use xlink:href="#c"/></mask><use fill="#4278BC" fill-rule="nonzero" xlink:href="#c"/><path d="M68.9818419 36.0253583c-1.3575441-1.3671444-3.5672828-1.3671444-4.9248269 0L43.6724086 56.5400314l-7.730356-7.7796805c-1.3566117-1.3680827-3.5672828-1.3680827-4.9238945 0-1.3575441 1.3662061-1.3575441 3.589106 0 4.9562505l10.1927694 10.2568674C41.8682548 64.6359286 42.7428265 65 43.6724086 65c.9305144 0 1.8050861-.3640714 2.4624134-1.0265312l22.8470199-22.9927984c1.3575441-1.3662061 1.3575441-3.589106 0-4.9553121" fill="#FEFEFE" mask="url(#d)"/></g></g></g></svg>