<?xml version="1.0" encoding="UTF-8"?>
<svg width="464px" height="191px" viewBox="0 0 464 191" version="1.1" xmlns="http://www.w3.org/2000/svg" xmlns:xlink="http://www.w3.org/1999/xlink">
    <title>verify_empty</title>
    <g id="Page-1" stroke="none" stroke-width="1" fill="none" fill-rule="evenodd">
        <g id="verify_empty">
            <path d="M125.5,78.5 L62.5,78.5 L62.5,141.508032 C62.5,146.891107 65.1576746,149.5 70.6507529,149.5 L117.349247,149.5 C121.85322,149.5 125.5,145.919662 125.5,141.508032 L125.5,78.5 Z M62.5,120.440186 C58.1708673,120.308947 54.9315504,118.452763 52.5751987,114.657022 C50.4189553,111.183627 49.8865252,105.796519 50.6175685,100.727201 C51.1647389,96.9329242 52.6174499,95.5799168 55.6409634,95.5799168 L62.5,95.5799168 L62.5,88.5013787 L55.634227,88.5013364 C51.5240168,88.445955 48.3051096,90.1099944 45.9266046,93.5212963 C41.9059838,99.2877554 42.8517759,114.932431 48.534865,120.843789 C52.5611908,125.031837 57.2089509,127.239314 62.5,127.482759 L62.5,120.440186 Z" id="Shape" stroke="#BEBEBE" fill="#DCDCDC" fill-rule="nonzero"></path>
            <polygon id="Path" fill="#FFFFFF" fill-rule="nonzero" points="30 154 110 154 110 184 30 184"></polygon>
            <path d="M24.5,182.5 L109.5,182.5 L109.5,189.5 L24.5,189.5 L24.5,182.5 Z M24.5,148.5 L109.5,148.5 L109.5,155.5 L24.5,155.5 L24.5,148.5 Z" id="Shape" stroke="#BEBEBE" fill="#FFFFFF" fill-rule="nonzero"></path>
            <path d="M39,175 L116,175 L116,176 L39,176 L39,175 Z M39,169 L116,169 L116,170 L39,170 L39,169 Z M39,163 L116,163 L116,164 L39,164 L39,163 Z M30,155 L31,155 L31,183 L30,183 L30,155 Z" id="Shape" fill="#BEBEBE" fill-rule="nonzero"></path>
            <g id="Group" transform="translate(346.000000, 36.000000)" fill-rule="nonzero" stroke="#BEBEBE">
                <path d="M50.3258547,63.3342116 L43.6819536,87.086281 L53.8175312,89.4372775 L70.3371493,66.2296686 C76.1790038,46.8775224 82.5930789,24.1228393 84.380604,16.7023771 C84.2607548,16.7372772 84.1346449,16.7748558 84.0024955,16.8151659 C83.058205,17.1032073 82.0047294,17.4690483 80.8694943,17.9192206 C77.6244371,19.2060335 74.3792331,20.9086645 71.3528382,23.0780856 C68.9212289,24.8211445 66.7336466,26.7978994 64.8494563,29.0223126 C61.7292621,32.7041485 56.2712728,45.8119788 50.3258547,63.3342116 L50.3258547,63.3342116 Z" id="Path" fill="#DCDCDC"></path>
                <path d="M53.4800779,75.6971042 C50.5906114,48.2979672 45.8903715,22.1875352 41.9452029,15.6989893 C40.3410205,13.060678 38.4729979,10.6363214 36.3934908,8.42047174 C33.8484754,5.70859273 31.1211682,3.44278418 28.3948734,1.60453429 C27.5188757,1.01387818 26.7010653,0.50742449 25.9592918,0.08332889 C27.1427179,3.48266027 27.8489996,8.4651198 28.6789087,17.6538283 C28.8089043,19.093132 29.2676355,24.3458064 29.2983743,24.6933807 C29.5609433,27.6623329 29.7817197,30.0340893 30.0209291,32.4052202 C30.6409106,38.5507038 31.3263209,44.0376294 32.1921323,49.4757572 L33.8744527,62.9226751 L47.0250155,83.1694454 L53.4800779,75.6971042 Z" id="Path" fill="#DCDCDC"></path>
                <path d="M37.1839961,66.8387696 C30.8229327,42.4034617 22.7643104,23.8538213 14.0542688,17.3511626 C7.98386644,12.8193954 4.01968204,10.1645335 1.82314773,9.0537584 C1.27997736,8.77908024 0.87274898,8.6148321 0.60698813,8.54282176 C0.61356987,8.55422879 0.61966916,8.56429369 0.6250844,8.57283853 C5.59139356,16.7012611 11.0569969,32.7241626 15.9858187,52.3911864 L37.1839961,66.8387696 L37.1839961,66.8387696 Z" id="Shape" fill="#DCDCDC"></path>
                <path d="M47.2883742,83.4991835 C42.6656881,70.887074 32.250283,55.2426949 25.8341558,53.2999029 C21.7838243,52.0741369 17.5868741,51.2862482 13.4836713,50.8497152 C12.041039,50.6962359 10.7112805,50.5978049 9.52436298,50.5434681 C9.48071639,50.54147 9.43758013,50.539547 9.39495847,50.5376976 C17.6589466,57.8795826 29.3616477,73.8539066 33.0380928,83.4828406 L47.2883742,83.4991835 L47.2883742,83.4991835 Z" id="Path" fill="#DCDCDC"></path>
                <path d="M75.2375821,62.8806365 L59.1148214,63.558402 C54.046433,70.9733951 49.6581772,78.2879133 46.7333372,84.2795368 L64.9013241,87.7800753 L75.2375821,62.8806365 L75.2375821,62.8806365 Z" id="Path" fill="#BEBEBE"></path>
                <path d="M61.0050735,63.5285507 C63.0294338,65.8697222 66.3633337,68.5924727 73.1276926,73.7043505 C73.3118609,73.8435146 73.3118609,73.8435146 73.4960848,73.9826826 C82.318325,80.6469791 85.3760918,83.1797378 87.2238739,85.8184714 C89.0652403,88.4472767 90.7979628,90.863699 92.370467,93.0132112 C92.7798328,93.5727879 93.1563294,94.0841219 93.4973025,94.5444074 C93.543729,91.1726518 93.3384737,87.2955967 92.7045186,83.5867066 C92.0506931,79.7615667 91.0059517,76.6599647 89.5199281,74.5483386 C88.2896213,72.8009895 86.7822551,71.0399913 85.0590547,69.2907928 C83.3044188,67.5096843 81.4228282,65.8360456 79.5412347,64.3199646 C78.8827964,63.7894325 78.2716442,63.3166841 77.7236165,62.9078935 C77.4953781,62.7376435 77.3130831,62.6043685 77.1820796,62.5101467 L61.0050735,63.5285507 L61.0050735,63.5285507 Z" id="Path" fill="#DCDCDC"></path>
                <path d="M73.1955621,82.5 L20.8044379,82.5 C14.926478,86.7675897 11.3706744,92.6256211 11.3698819,98.7144234 L9.5,131.751196 C9.5,143.710582 19.3673991,153.5 31.4260342,153.5 L62.5739658,153.5 C74.6326009,153.5 84.5,143.710582 84.5007983,131.779439 L82.6293198,98.6861807 C82.6293198,92.6254151 79.073522,86.7675882 73.1955621,82.5 L73.1955621,82.5 Z" id="Path" fill="#FFFFFF"></path>
            </g>
            <g id="Group" transform="translate(82.000000, 0.000000)" fill-rule="nonzero">
                <path d="M281.5,182.5 L281.5,4.26497665 C281.5,1.71085696 280.147818,0.5 277.237237,0.5 L22.662812,0.5 C19.8654788,0.5 18.541373,1.71113191 18.5,4.26497665 L18.5,182.5 L281.5,182.5 Z" id="Path" stroke="#171717" fill="#FFFFFF"></path>
                <polyline id="Path" fill="#F3F3F3" points="178.379425 175 270 175 270 20 30 20 30 175 123.03895 175"></polyline>
                <polygon id="Path" fill="#DCDCDC" points="262.187868 28 270 28 270 20 30 20 30 28 37.812132 28"></polygon>
                <path d="M270,180 L270,20 L269,20 L269,180 L270,180 Z M31,180 L31,20 L30,20 L30,180 L31,180 Z" id="Shape" fill="#171717"></path>
                <polygon id="Path" fill="#171717" points="262.187868 21 270 21 270 20 30 20 30 21 37.812132 21"></polygon>
                <path d="M178.5,168.5 L178.5,173 C178.5,173.175511 178.514711,173.997573 178.509208,174.177032 C178.496646,174.586677 178.432779,174.854159 178.237441,175.081063 C177.897416,175.476036 177.663784,175.5 176,175.5 L124,175.5 C122.417821,175.5 122.17041,175.474022 121.822039,175.091533 C121.499299,174.737185 121.517314,175.010747 121.5,173 L121.5,168.5 L0.5,168.5 L0.5,189.5 L299.5,189.5 L299.5,168.5 L178.5,168.5 Z" id="Path" stroke="#171717" fill="#FFFFFF"></path>
                <g transform="translate(146.000000, 6.000000)" id="a-link">
                    <g fill="#BEBEBE">
                        <path d="M8,4.0008664 C8,6.2083604 6.209705,8 4,8 C1.790295,8 0,6.2083604 0,4.0008664 C0,1.79163959 1.790295,0 4,0 C6.209705,0 8,1.79163959 8,4.0008664 Z" id="a"></path>
                    </g>
                    <g fill="#000000">
                        <path d="M8,4.0008664 C8,6.2083604 6.209705,8 4,8 C1.790295,8 0,6.2083604 0,4.0008664 C0,1.79163959 1.790295,0 4,0 C6.209705,0 8,1.79163959 8,4.0008664 Z" id="a"></path>
                    </g>
                </g>
            </g>
            <polygon id="Path" fill="#171717" fill-rule="nonzero" points="0 189 464 189 464 190 0 190"></polygon>
            <g id="Group">
                <polygon id="Path" points="0 0 464 0 464 190 0 190"></polygon>
            </g>
        </g>
    </g>
</svg>