<?xml version="1.0" encoding="UTF-8" standalone="no"?><svg id="Layer_1" data-name="Layer 1" xmlns="http://www.w3.org/2000/svg" viewBox="0 0 316 111.48"><defs><style>.cls-1{fill:#e0e0e0;}.cls-2{fill:#1b3649;}.cls-3{fill:#fff;}.cls-4{fill:#f2f2f3;}.cls-5{fill:#152935;}</style></defs><title>Artboard 191</title><path class="cls-1" d="M69.64,93.39H17.5a.5.5,0,0,1,0-1H69.64a.5.5,0,0,1,0,1Z"/><path class="cls-1" d="M69.64,96.25H17.5a.5.5,0,0,1,0-1H69.64a.5.5,0,0,1,0,1Z"/><path class="cls-1" d="M69.64,99.11H17.5a.5.5,0,0,1,0-1H69.64a.5.5,0,0,1,0,1Z"/><path class="cls-1" d="M69.64,102H17.5a.5.5,0,0,1,0-1H69.64a.5.5,0,0,1,0,1Z"/><path class="cls-1" d="M69.64,104.83H17.5a.5.5,0,0,1,0-1H69.64a.5.5,0,0,1,0,1Z"/><path class="cls-1" d="M68,111.47H13.33a.5.5,0,0,1-.5-.5v-4a.5.5,0,0,1,.5-.5H68a7.88,7.88,0,0,0,0-15.75H13.33a.5.5,0,0,1-.5-.5v-4a.5.5,0,0,1,.5-.5H68a12.86,12.86,0,0,1,0,25.73Zm-54.13-1H68a11.86,11.86,0,0,0,0-23.73H13.83v3H68a8.88,8.88,0,0,1,0,17.75H13.83Z"/><path class="cls-1" d="M15.14,107.48a.5.5,0,0,1-.5-.5V90.23a.5.5,0,0,1,1,0V107A.5.5,0,0,1,15.14,107.48Z"/><path class="cls-1" d="M66.38,86.74h-27a5.51,5.51,0,0,1-5.5-5.5V43.85a.5.5,0,0,1,.5-.5h37a.5.5,0,0,1,.5.5V81.24A5.51,5.51,0,0,1,66.38,86.74ZM34.89,44.35V81.24a4.5,4.5,0,0,0,4.5,4.5h27a4.5,4.5,0,0,0,4.5-4.5V44.35Z"/><path class="cls-1" d="M71.22,83.25H34.55a.5.5,0,0,1,0-1H71.22a.5.5,0,0,1,0,1Z"/><path class="cls-1" d="M34.39,69.92a7.91,7.91,0,0,1-7.9-7.9V58a3.32,3.32,0,0,1,3.32-3.32h4.58a.5.5,0,0,1,0,1H29.81A2.32,2.32,0,0,0,27.49,58v4a6.91,6.91,0,0,0,6.9,6.9.5.5,0,0,1,0,1Z"/><path class="cls-1" d="M34.38,74.63A12.62,12.62,0,0,1,21.78,62V58a8,8,0,0,1,8-8h4.58a.5.5,0,0,1,0,1H29.81a7,7,0,0,0-7,7v4A11.62,11.62,0,0,0,34.38,73.63a.5.5,0,0,1,0,1Z"/><path class="cls-1" d="M273.59,55.91l-.15,0a.5.5,0,0,1-.32-.63c3.86-12,7.36-23.83,8.44-27.93a25.91,25.91,0,0,0-11.43,6.88c-1.81,2-5.09,9.3-8.78,19.51a.5.5,0,1,1-.94-.34c1.79-5,6.25-16.82,9-19.84a26.77,26.77,0,0,1,12.76-7.4.5.5,0,0,1,.59.61c-.75,3.07-4.5,15.83-8.67,28.83A.5.5,0,0,1,273.59,55.91Z"/><path class="cls-1" d="M261.79,61.8a.5.5,0,0,1-.5-.45c-1.47-13.89-4.2-30.72-6.73-34.83-3-5-9-9.51-11.61-11.38,2.21,6.49,4.84,21.79,6.29,30.82a.5.5,0,0,1-.42.57.51.51,0,0,1-.57-.42c-2.71-16.89-5.13-28.29-6.8-32.09a.5.5,0,0,1,.73-.62c.37.24,9.15,5.93,13.23,12.59,2.6,4.25,5.38,21.25,6.87,35.25a.5.5,0,0,1-.44.55Z"/><path class="cls-1" d="M243.41,68.85a.5.5,0,0,1-.49-.42c-.57-3.63-1.39-7.88-2.36-12.29a.5.5,0,1,1,1-.21c1,4.43,1.79,8.7,2.37,12.35a.5.5,0,0,1-.42.57Z"/><path class="cls-1" d="M252.42,58.82a.5.5,0,0,1-.48-.38c-2.25-8.89-7-24.54-13.43-29.38a54.83,54.83,0,0,0-7.11-4.86C235,30.54,238.32,42.58,240,49.3a.5.5,0,0,1-1,.24c-1.7-6.86-5.1-19.28-8.78-25.35a.81.81,0,0,1,0-1.07c.39-.36.93-.85,8.86,5.12,6.68,5,11.51,20.92,13.79,29.94a.5.5,0,0,1-.36.61Z"/><path class="cls-1" d="M257.55,68.85a.5.5,0,0,1-.47-.33c-2.2-6.13-8.27-16.21-12.4-17.45a40.82,40.82,0,0,0-8.85-1.53c4.62,4.25,11.25,13,13.34,18.63a.5.5,0,1,1-.94.35C246,62.69,238.52,53,234.1,49.37a.5.5,0,0,1,.31-.89A40.6,40.6,0,0,1,245,50.11C249.79,51.55,256,62.64,258,68.18a.5.5,0,0,1-.3.64Z"/><path class="cls-1" d="M257.6,68.84a.5.5,0,0,1-.44-.73,98.53,98.53,0,0,1,8-12.5.5.5,0,0,1,.37-.2l10.14-.62a.51.51,0,0,1,.53.47.5.5,0,0,1-.47.53l-9.9.61A96.91,96.91,0,0,0,258,68.57.5.5,0,0,1,257.6,68.84Z"/><path class="cls-1" d="M269.43,68.84a.5.5,0,0,1-.47-.68c.81-2.11,1.78-4.57,2.78-6.83a.5.5,0,1,1,.91.41c-1,2.23-2,4.68-2.76,6.78A.5.5,0,0,1,269.43,68.84Z"/><path class="cls-1" d="M285.44,75.17A.5.5,0,0,1,285,75s-1.75-2.26-4.19-5.66c-1.2-1.67-4.5-4.1-7.69-6.45s-6.5-4.78-8-6.65a.5.5,0,0,1,.36-.81l10.14-.62a.49.49,0,0,1,.31.09,34.65,34.65,0,0,1,7.5,7.11c2.86,4,2.47,12.36,2.45,12.71a.5.5,0,0,1-.35.45ZM266.63,56.34a64.88,64.88,0,0,0,7.13,5.72c3.4,2.5,6.61,4.87,7.91,6.67s2.56,3.5,3.3,4.48c0-2.56-.3-7.9-2.29-10.65a33.93,33.93,0,0,0-7.11-6.77Z"/><path class="cls-1" d="M265.89,111.47h-18.3A13.69,13.69,0,0,1,233.92,97.8L235,78.19c0-3.77,2.17-7.52,5.95-10.26a.5.5,0,0,1,.29-.09h31a.5.5,0,0,1,.29.09c3.78,2.74,5.95,6.48,5.95,10.29l1.1,19.55A13.7,13.7,0,0,1,265.89,111.47ZM241.42,68.84c-3.44,2.54-5.4,5.95-5.4,9.38l-1.1,19.61a12.68,12.68,0,0,0,12.68,12.65h18.3A12.69,12.69,0,0,0,278.57,97.8l-1.1-19.55c0-3.46-2-6.87-5.41-9.41Z"/><path class="cls-2" d="M315.5,111.48H.5a.5.5,0,0,1,0-1h315a.5.5,0,0,1,0,1Z"/><path class="cls-3" d="M176.79,100.73h60V5.21A4.72,4.72,0,0,0,232.05.5H88.9a4.6,4.6,0,0,0-4.59,4.59v95.64h60"/><path class="cls-2" d="M236.76,101.23h-60v-1h59.47v-95A4.22,4.22,0,0,0,232.05,1H88.9a4.09,4.09,0,0,0-4.09,4.09v95.14h59.47v1h-60a.5.5,0,0,1-.5-.5V5.09A5.09,5.09,0,0,1,88.9,0H232.05a5.22,5.22,0,0,1,5.21,5.21v95.52A.5.5,0,0,1,236.76,101.23Z"/><path class="cls-4" d="M144.29,100.73v1.77a2.29,2.29,0,0,0,2.29,2.29H174.5a2.29,2.29,0,0,0,2.29-2.29v-1.77H230.6v-83A4.59,4.59,0,0,0,226,13.12H94.24a4.59,4.59,0,0,0-4.59,4.59v83h54.64Z"/><path class="cls-2" d="M160.54,10.28a2.81,2.81,0,1,1,2.81-2.81A2.81,2.81,0,0,1,160.54,10.28Zm0-4.62a1.81,1.81,0,1,0,1.81,1.81A1.81,1.81,0,0,0,160.54,5.67Z"/><rect class="cls-1" x="89.65" y="13.12" width="140.95" height="3.42"/><path class="cls-2" d="M230.6,101.23H176.79v-1H230.1V13.31H90.15v86.92h54.14v1H89.65a.5.5,0,0,1-.5-.5V12.81a.5.5,0,0,1,.5-.5H230.6a.5.5,0,0,1,.5.5v87.92A.5.5,0,0,1,230.6,101.23Z"/><path class="cls-3" d="M176.79,100.73v1.77a2.29,2.29,0,0,1-2.29,2.29H146.58a2.29,2.29,0,0,1-2.29-2.29v-1.77H73.07V111H248V100.73Z"/><path class="cls-2" d="M248,111.47H73.07a.5.5,0,0,1-.5-.5V100.73a.5.5,0,0,1,.5-.5h71.22a.5.5,0,0,1,.5.5v1.77a1.8,1.8,0,0,0,1.79,1.79H174.5a1.8,1.8,0,0,0,1.79-1.79v-1.77a.5.5,0,0,1,.5-.5H248a.5.5,0,0,1,.5.5V111A.5.5,0,0,1,248,111.47Zm-174.43-1H247.51v-9.24H177.29v1.27a2.8,2.8,0,0,1-2.79,2.79H146.58a2.8,2.8,0,0,1-2.79-2.79v-1.27H73.57Z"/><rect class="cls-5" x="67.26" y="35.43" width="37.52" height="65.92" rx="1" ry="1"/><rect class="cls-3" x="63.87" y="22.17" width="44.3" height="88.8" rx="5" ry="5"/><path class="cls-2" d="M103.17,111.48H68.87a5.51,5.51,0,0,1-5.5-5.5V27.17a5.51,5.51,0,0,1,5.5-5.5h34.3a5.51,5.51,0,0,1,5.5,5.5V106A5.51,5.51,0,0,1,103.17,111.48Zm-34.3-88.8a4.5,4.5,0,0,0-4.5,4.5V106a4.5,4.5,0,0,0,4.5,4.5h34.3a4.5,4.5,0,0,0,4.5-4.5V27.17a4.5,4.5,0,0,0-4.5-4.5Z"/><path class="cls-2" d="M86,108.93a4.13,4.13,0,1,1,4.13-4.12A4.13,4.13,0,0,1,86,108.93Zm0-7.25a3.13,3.13,0,1,0,3.13,3.13A3.13,3.13,0,0,0,86,101.68Z"/><path class="cls-2" d="M90.82,28.83H81.23a.5.5,0,0,1,0-1h9.59a.5.5,0,0,1,0,1Z"/><rect class="cls-4" x="67.26" y="34.49" width="37.52" height="64.15"/><path class="cls-2" d="M104.79,99.14H67.26a.5.5,0,0,1-.5-.5V34.49a.5.5,0,0,1,.5-.5h37.52a.5.5,0,0,1,.5.5V98.64A.5.5,0,0,1,104.79,99.14Zm-37-1h36.52V35H67.76Z"/><rect class="cls-1" x="67.26" y="34.49" width="37.52" height="3.42"/><path class="cls-2" d="M104.79,99.14H67.26a.5.5,0,0,1-.5-.5V34.49a.5.5,0,0,1,.5-.5h37.52a.5.5,0,0,1,.5.5V98.64A.5.5,0,0,1,104.79,99.14Zm-37-1h36.52V35H67.76Z"/><rect class="cls-3" x="120.11" y="56.08" width="79.6" height="9.79"/><path class="cls-2" d="M199.72,66.37h-79.6a.5.5,0,0,1-.5-.5V56.08a.5.5,0,0,1,.5-.5h79.6a.5.5,0,0,1,.5.5v9.79A.5.5,0,0,1,199.72,66.37Zm-79.1-1h78.6V56.58h-78.6Z"/><rect class="cls-3" x="120.11" y="37.35" width="79.6" height="9.79"/><path class="cls-2" d="M200.22,47.64h-80.6V36.85h80.6Zm-79.6-1h78.6V37.85h-78.6Z"/><rect class="cls-1" x="162.85" y="74.81" width="37.29" height="9.79"/><path class="cls-2" d="M200.13,85.1H162.85a.5.5,0,0,1-.5-.5V74.81a.5.5,0,0,1,.5-.5h37.29a.5.5,0,0,1,.5.5V84.6A.5.5,0,0,1,200.13,85.1Zm-36.79-1h36.29V75.31H163.35Z"/></svg>